<?xml version="1.0" encoding="UTF-8" standalone="no"?>
<svg width="84px" height="84px" viewBox="0 0 84 84" version="1.1" xmlns="http://www.w3.org/2000/svg" xmlns:xlink="http://www.w3.org/1999/xlink">
    <!-- Generator: Sketch 3.8.3 (29802) - http://www.bohemiancoding.com/sketch -->
    <title>Page 1</title>
    <desc>Created with Sketch.</desc>
    <defs>
        <polygon id="path-1" points="0 82.9241122 82.4441612 82.9241122 82.4441612 0 0 0"></polygon>
    </defs>
    <g id="Homepage" stroke="none" stroke-width="1" fill="none" fill-rule="evenodd">
        <g id="Homepage_Mobile" transform="translate(-185.000000, -2755.000000)">
            <g id="Group-4" transform="translate(164.000000, 2747.000000)">
                <g id="Page-1" transform="translate(21.770786, 8.413893)">
                    <mask id="mask-2" fill="white">
                        <use xlink:href="#path-1"></use>
                    </mask>
                    <g id="Clip-2"></g>
                    <path d="M29.7201953,51.7855253 L52.2571395,51.7855253 L52.2571395,29.2847038 L29.7201953,29.2847038 L29.7201953,51.7855253 Z M28.163019,28.5076895 L28.163019,52.5625396 C28.163019,52.9914619 28.5116698,53.3395539 28.9412807,53.3395539 L53.0347483,53.3395539 C53.4650121,53.3395539 53.8136629,52.9914619 53.8136629,52.5625396 L53.8136629,28.5076895 C53.8136629,28.0781153 53.4650121,27.7300234 53.0347483,27.7300234 L28.9412807,27.7300234 C28.5116698,27.7300234 28.163019,28.0781153 28.163019,28.5076895 L28.163019,28.5076895 Z" id="Fill-1" fill="#FFFFFF" mask="url(#mask-2)"></path>
                    <path d="M20.3611413,1.55461525 C21.6486682,1.55461525 22.6952735,2.60019488 22.6952735,3.88500626 C22.6952735,5.17046949 21.6486682,6.21604912 20.3611413,6.21604912 C19.0736143,6.21604912 18.0263561,5.17046949 18.0263561,3.88500626 C18.0263561,2.60019488 19.0736143,1.55461525 20.3611413,1.55461525 M20.3611413,7.77072956 C22.3009194,7.77072956 23.9090222,6.34511693 24.2008704,4.48862642 L31.7882691,4.48862642 C33.7267414,4.48862642 35.3035048,6.06286258 35.3035048,7.99822787 L35.3035048,18.1861107 C34.0851857,18.6078626 33.2044181,19.7512208 33.2044181,21.1109958 C33.2044181,22.827337 34.5983684,24.219053 36.3174649,24.219053 C38.0372144,24.219053 39.4311646,22.827337 39.4311646,21.1109958 C39.4311646,19.5797823 38.3199218,18.3145266 36.8606811,18.0576947 L36.8606811,7.99822787 C36.8606811,5.20632166 34.5846574,2.93394598 31.7882691,2.93394598 L24.1297038,2.93394598 C23.7027045,1.2508496 22.1775205,-6.51857622e-05 20.3611413,-6.51857622e-05 C18.2150454,-6.51857622e-05 16.4691798,1.7430021 16.4691798,3.88500626 C16.4691798,6.02766227 18.2150454,7.77072956 20.3611413,7.77072956" id="Fill-3" fill="#FFFFFF" mask="url(#mask-2)"></path>
                    <path d="M61.1249485,81.3695621 C59.8374216,81.3695621 58.7908163,80.3239825 58.7908163,79.0391711 C58.7908163,77.7537079 59.8374216,76.7081282 61.1249485,76.7081282 C62.4124754,76.7081282 63.4597336,77.7537079 63.4597336,79.0391711 C63.4597336,80.3239825 62.4124754,81.3695621 61.1249485,81.3695621 M62.0775356,75.275997 L62.0775356,64.9244979 C62.0775356,62.1325917 59.8028177,59.8608679 57.0057764,59.8608679 L49.3321944,59.8608679 C48.9848494,58.5226042 47.7782826,57.5304769 46.3294884,57.5304769 C44.6097389,57.5304769 43.2164415,58.9215411 43.2164415,60.6385341 C43.2164415,62.3548752 44.6097389,63.7465912 46.3294884,63.7465912 C47.7782826,63.7465912 48.9848494,62.753812 49.3321944,61.4155483 L57.0057764,61.4155483 C58.9442487,61.4155483 60.5203593,62.9897845 60.5203593,64.9244979 L60.5203593,75.2049445 C58.6615413,75.4963249 57.23364,77.1018502 57.23364,79.0391711 C57.23364,81.1811752 58.9795056,82.9242425 61.1249485,82.9242425 C63.2710443,82.9242425 65.0169099,81.1811752 65.0169099,79.0391711 C65.0169099,77.2250513 63.7639869,75.70166 62.0775356,75.275997" id="Fill-4" fill="#FFFFFF" mask="url(#mask-2)"></path>
                    <path d="M46.7221449,2.57314279 C48.0096718,2.57314279 49.0562771,3.61872242 49.0562771,4.90418565 C49.0562771,6.18964889 48.0096718,7.23457666 46.7221449,7.23457666 C45.434618,7.23457666 44.3873598,6.18964889 44.3873598,4.90418565 C44.3873598,3.61872242 45.434618,2.57314279 46.7221449,2.57314279 M45.9562884,8.71298976 L45.9562884,18.0404205 C44.4147817,18.2261999 43.2160498,19.5220929 43.2160498,21.1113218 C43.2160498,22.8276629 44.6100001,24.2193789 46.3290966,24.2193789 C48.048846,24.2193789 49.4421434,22.8276629 49.4421434,21.1113218 C49.4421434,19.8134732 48.6449475,18.7040116 47.5134647,18.2385852 L47.5134647,8.70842675 C49.2808761,8.34208277 50.6134534,6.77566889 50.6134534,4.90418565 C50.6134534,2.76152964 48.8675878,1.01846235 46.7221449,1.01846235 C44.5760491,1.01846235 42.8301835,2.76152964 42.8301835,4.90418565 C42.8301835,6.7847949 44.1758188,8.35707549 45.9562884,8.71298976" id="Fill-5" fill="#FFFFFF" mask="url(#mask-2)"></path>
                    <polygon id="Fill-6" fill="#FF003D" mask="url(#mask-2)" points="36.4255205 45.0902956 45.5511614 45.0902956 45.5511614 35.9792816 36.4255205 35.9792816"></polygon>
                    <path d="M36.4255205,45.0902956 L45.5511614,45.0902956 L45.5511614,35.9792816 L36.4255205,35.9792816 L36.4255205,45.0902956 Z M46.3294231,34.425253 L35.6472588,34.425253 C35.216995,34.425253 34.8683442,34.773345 34.8683442,35.2022673 L34.8683442,45.8673099 C34.8683442,46.2968841 35.216995,46.6449761 35.6472588,46.6449761 L46.3294231,46.6449761 C46.759034,46.6449761 47.1076848,46.2968841 47.1076848,45.8673099 L47.1076848,35.2022673 C47.1076848,34.773345 46.759034,34.425253 46.3294231,34.425253 L46.3294231,34.425253 Z" id="Fill-7" fill="#FFFFFF" mask="url(#mask-2)"></path>
                    <path d="M77.5323636,33.4517037 C78.8198905,33.4517037 79.8671487,34.4972833 79.8671487,35.7820947 C79.8671487,37.0675579 78.8198905,38.1131375 77.5323636,38.1131375 C76.2448367,38.1131375 75.1982314,37.0675579 75.1982314,35.7820947 C75.1982314,34.4972833 76.2448367,33.4517037 77.5323636,33.4517037 M61.0968083,38.9592487 C62.5664955,38.9592487 63.7900378,37.9390915 64.1171428,36.5721461 L73.7220152,36.5721461 C74.0889473,38.3373766 75.6578759,39.667818 77.5323636,39.667818 C79.6784594,39.667818 81.424325,37.9247507 81.424325,35.7820947 C81.424325,33.6400905 79.6784594,31.8970232 77.5323636,31.8970232 C75.6487352,31.8970232 74.0745834,33.2405018 73.7174449,35.0174657 L64.0825388,35.0174657 C63.7156067,33.7085356 62.5253625,32.7431344 61.0968083,32.7431344 C59.3777118,32.7431344 57.9837615,34.1341986 57.9837615,35.8511916 C57.9837615,37.5675327 59.3777118,38.9592487 61.0968083,38.9592487" id="Fill-8" fill="#FFFFFF" mask="url(#mask-2)"></path>
                    <path d="M78.5531792,55.5721662 C77.2656523,55.5721662 76.2183941,54.5265866 76.2183941,53.2411234 C76.2183941,51.9556601 77.2656523,50.9107323 78.5531792,50.9107323 C79.8407061,50.9107323 80.8873114,51.9556601 80.8873114,53.2411234 C80.8873114,54.5265866 79.8407061,55.5721662 78.5531792,55.5721662 M79.4567985,49.4662159 C79.1277348,46.9891569 77.0031848,45.0694362 74.4333542,45.0694362 L64.1494615,45.0694362 C64.1331389,45.0694362 64.1194279,45.0779103 64.1031053,45.0785622 C63.7590248,43.7357355 62.5491935,42.7383933 61.0971348,42.7383933 C59.3773853,42.7383933 57.984088,44.1301093 57.984088,45.8464505 C57.984088,47.5627916 59.3773853,48.9545076 61.0971348,48.9545076 C62.5491935,48.9545076 63.7590248,47.9571655 64.1024524,46.6143387 C64.1194279,46.6156425 64.1331389,46.6234648 64.1494615,46.6234648 L74.4333542,46.6234648 C76.1269875,46.6234648 77.5431365,47.8254902 77.8748118,49.4192821 C76.0512506,49.7406479 74.6612178,51.3305287 74.6612178,53.2411234 C74.6612178,55.3837794 76.4070834,57.1268467 78.5531792,57.1268467 C80.6986221,57.1268467 82.4444877,55.3837794 82.4444877,53.2411234 C82.4444877,51.4100553 81.1674073,49.8742787 79.4567985,49.4662159" id="Fill-9" fill="#FFFFFF" mask="url(#mask-2)"></path>
                    <path d="M6.22615893,64.876456 C6.22615893,66.1619193 5.17890073,67.2074989 3.89137381,67.2074989 C2.6038469,67.2074989 1.5572416,66.1619193 1.5572416,64.876456 C1.5572416,63.5909928 2.6038469,62.546065 3.89137381,62.546065 C5.17890073,62.546065 6.22615893,63.5909928 6.22615893,64.876456 M8.22404552,47.039024 L18.5085911,47.039024 C18.5601706,47.039024 18.6052209,47.0188164 18.6541887,47.0096904 C19.115792,48.1484857 20.2309522,48.9548335 21.5374133,48.9548335 C23.2565098,48.9548335 24.6504601,47.5631175 24.6504601,45.8461245 C24.6504601,44.1297834 23.2565098,42.7380674 21.5374133,42.7380674 C19.9423686,42.7380674 18.6424365,43.9407447 18.4609291,45.4843436 L8.22404552,45.4843436 C5.42700429,45.4843436 3.15228636,47.7554155 3.15228636,50.5479736 L3.15228636,61.0637408 C1.35941166,61.4098772 6.52904127e-05,62.9867208 6.52904127e-05,64.876456 C6.52904127e-05,67.019112 1.74593089,68.7621793 3.89137381,68.7621793 C6.03746964,68.7621793 7.78333524,67.019112 7.78333524,64.876456 C7.78333524,63.0147507 6.46381602,61.4555072 4.70946267,61.0793854 L4.70946267,50.5479736 C4.70946267,48.6126083 6.2855732,47.039024 8.22404552,47.039024" id="Fill-10" fill="#FFFFFF" mask="url(#mask-2)"></path>
                    <path d="M3.89130852,33.4644149 C5.17883544,33.4644149 6.22609364,34.5099945 6.22609364,35.7948059 C6.22609364,37.0802691 5.17883544,38.1258488 3.89130852,38.1258488 C2.60378161,38.1258488 1.55717631,37.0802691 1.55717631,35.7948059 C1.55717631,34.5099945 2.60378161,33.4644149 3.89130852,33.4644149 M3.89130852,39.6805292 C5.7755898,39.6805292 7.34974162,38.3370506 7.70688017,36.5594349 L18.4243012,36.5594349 C18.4536819,36.5594349 18.4791452,36.5457459 18.5078729,36.5424866 C18.8238785,37.9250766 20.0572144,38.9589228 21.537348,38.9589228 C23.2564446,38.9589228 24.6503948,37.5672068 24.6503948,35.8508656 C24.6503948,34.1345245 23.2564446,32.7428085 21.537348,32.7428085 C20.1048764,32.7428085 18.9107148,33.7147282 18.548353,35.0301769 C18.5059142,35.0230065 18.4680458,35.0047544 18.4243012,35.0047544 L7.70165693,35.0047544 C7.33537773,33.2401759 5.76644914,31.9097344 3.89130852,31.9097344 C1.7458656,31.9097344 0,33.6528017 0,35.7948059 C0,37.9374619 1.7458656,39.6805292 3.89130852,39.6805292" id="Fill-11" fill="#FFFFFF" mask="url(#mask-2)"></path>
                    <path d="M24.0063702,71.8864677 C24.0063702,73.171931 22.959112,74.2168587 21.672238,74.2168587 C20.3847111,74.2168587 19.3374529,73.171931 19.3374529,71.8864677 C19.3374529,70.6010045 20.3847111,69.5554249 21.672238,69.5554249 C22.959112,69.5554249 24.0063702,70.6010045 24.0063702,71.8864677 M36.3175302,57.5299554 C34.8693889,57.5299554 33.6621692,58.5227346 33.3148242,59.8609983 L26.0049097,59.8609983 C23.2078685,59.8609983 20.9324977,62.1327221 20.9324977,64.9246283 L20.9324977,68.0731006 C19.1389701,68.419237 17.7802766,69.9960806 17.7802766,71.8864677 C17.7802766,74.0284719 19.5261422,75.7715392 21.672238,75.7715392 C23.8176809,75.7715392 25.5635465,74.0284719 25.5635465,71.8864677 C25.5635465,70.0241105 24.2440273,68.4648671 22.489674,68.0887452 L22.489674,64.9246283 C22.489674,62.9899149 24.0664374,61.4156787 26.0049097,61.4156787 L33.3148242,61.4156787 C33.6621692,62.7532906 34.868736,63.7467216 36.3175302,63.7467216 C38.0372796,63.7467216 39.4312299,62.3550056 39.4312299,60.6380126 C39.4312299,58.9216714 38.0372796,57.5299554 36.3175302,57.5299554" id="Fill-12" fill="#FFFFFF" mask="url(#mask-2)"></path>
                </g>
            </g>
        </g>
    </g>
</svg>