<?xml version="1.0" encoding="UTF-8" standalone="no"?>
<svg width="80px" height="81px" viewBox="0 0 80 81" version="1.1" xmlns="http://www.w3.org/2000/svg" xmlns:xlink="http://www.w3.org/1999/xlink">
    <!-- Generator: Sketch 3.8.3 (29802) - http://www.bohemiancoding.com/sketch -->
    <title>Page 1</title>
    <desc>Created with Sketch.</desc>
    <defs></defs>
    <g id="Homepage" stroke="none" stroke-width="1" fill="none" fill-rule="evenodd">
        <g id="Homepage_Mobile" transform="translate(-53.000000, -2590.000000)">
            <g id="Group-15" transform="translate(30.000000, 2582.000000)">
                <g id="Page-1" transform="translate(23.175353, 8.413893)">
                    <path d="M59.7590979,31.6134258 C58.8055341,24.8166075 53.7682435,19.9946941 47.6322392,17.7513997 C47.8789291,17.0515074 48.371658,15.9272607 49.267292,14.7971654 C51.2095681,12.3465677 54.0214424,11.1040477 57.6235054,11.1040477 C65.1075171,11.1040477 67.7631762,16.662895 67.7631762,21.4230722 C67.7631762,26.3398642 64.1676221,30.8232039 59.7590979,31.6134258 L59.7590979,31.6134258 Z M43.4990443,48.470627 C41.1584193,48.470627 34.3077303,48.5044194 27.5585811,48.5375619 C21.0118608,48.5694047 14.5608224,48.6005977 12.4213245,48.6005977 C5.81797619,48.6005977 1.55134749,44.64104 1.55134749,38.5135708 C1.55134749,32.9118332 4.78500292,27.7688922 9.72986611,25.2533091 C9.46299841,26.7070315 9.31003766,28.9535752 10.1509964,31.3099442 C10.2642524,31.6264229 10.563014,31.8246282 10.8819535,31.8246282 C10.9685228,31.8246282 11.0563938,31.8103314 11.1429631,31.7797883 C11.5465192,31.6355208 11.7567588,31.1923207 11.6129106,30.7894115 C10.4178641,27.4407161 11.5842712,24.2226413 11.6083543,24.1589557 L11.6083543,24.1570061 L11.6109579,24.1511575 C13.1718085,19.8907176 17.2666005,17.0281127 21.8000968,17.0281127 C24.4791882,17.0281127 26.9968571,17.998344 28.9840451,19.760097 C27.4700591,21.0286111 24.846294,23.6319245 24.2761084,26.8584474 C24.2012552,27.2795525 24.4830936,27.681162 24.9048747,27.7552453 C24.9510884,27.7636934 24.9960003,27.7675925 25.0402612,27.7675925 C25.4106215,27.7675925 25.7380226,27.5031021 25.8037632,27.1274867 C26.4839504,23.2823033 30.8957291,20.2344901 30.940641,20.2045968 C30.9504044,20.1980983 30.9549607,20.1877006 30.9640733,20.1805522 C33.6249395,18.6800404 36.6145086,17.8800707 39.6483387,17.8800707 C41.9792002,17.8800707 44.1024257,18.1868015 46.0154115,18.7333284 C46.1241112,18.8957918 46.2926935,19.0186141 46.4990278,19.0615044 C46.649385,19.0920475 46.7912805,19.0654035 46.9240634,19.0166645 C54.4061224,21.5465444 58.3752913,27.9034119 58.3752913,33.9671954 C58.3752913,40.997961 53.1616077,48.470627 43.4990443,48.470627 L43.4990443,48.470627 Z M30.3574374,56.1109552 C30.2005713,56.3663477 30.2051276,56.688675 30.3685027,56.9401683 C30.5331796,57.190362 30.8306394,57.3268312 31.123543,57.2839409 L38.2183184,56.3163089 L22.1808715,76.1628365 L25.5460081,59.5493304 C25.5987307,59.2906886 25.5154159,59.022949 25.3247032,58.8383906 C25.1346413,58.6551319 24.8625664,58.5810486 24.6061131,58.6421348 L17.5106868,60.3252555 C19.3364524,56.3611488 21.622402,51.4378583 22.2837132,50.1121571 C23.9806012,50.103709 25.7679639,50.0952609 27.5663918,50.0868128 C29.7846482,50.0757653 32.0100645,50.0647177 34.0857744,50.0549699 L30.3574374,56.1109552 Z M69.3155651,21.4230722 C69.3155651,15.5152536 65.6998333,9.55479679 57.6235054,9.55479679 C49.7203162,9.55479679 46.9527029,15.0805016 46.1670704,17.2672588 C44.0529575,16.6505477 41.8425119,16.3301699 39.6483387,16.3301699 C36.3645642,16.3301699 33.1263525,17.1814781 30.2441814,18.7957143 C27.9400066,16.6518475 24.9647572,15.4782119 21.8000968,15.4782119 C16.7361195,15.4782119 12.1505514,18.6027078 10.2798739,23.2894516 C4.11653188,25.7913878 0.000260358732,31.865569 0.000260358732,38.5135708 C0.000260358732,45.4735024 4.99198812,50.1498486 12.4213245,50.1498486 C13.7706336,50.1498486 16.8357068,50.1375013 20.5581857,50.1199553 C19.3488194,52.6231912 16.7126873,58.3445019 15.4356277,61.1226258 C15.3126082,61.3916652 15.3536147,61.7081439 15.5417239,61.9368923 C15.7298331,62.1669405 16.0318492,62.2670179 16.3208474,62.1994332 L23.7846813,60.4298819 L20.0303084,78.9624056 C19.9593606,79.3120268 20.1370555,79.6655471 20.4605512,79.8176128 C20.5659965,79.8670017 20.6786016,79.8910463 20.7905559,79.8910463 C21.0196716,79.8910463 21.2429292,79.7896691 21.3945881,79.6025113 L40.6533234,55.7710818 C40.8524978,55.5241375 40.8811373,55.1810148 40.7249221,54.9041772 C40.5693577,54.6279894 40.2634362,54.4720245 39.9444968,54.5175143 L32.5385927,55.5273867 L35.9128418,50.0471717 C39.3411154,50.0315752 42.1594987,50.0205277 43.4990443,50.0205277 C49.7346359,50.0205277 53.5944541,47.1949645 55.733952,44.8255984 C58.3987236,41.8733137 59.9276802,37.9157056 59.9276802,33.9671954 C59.9276802,33.693607 59.916615,33.4245677 59.9042479,33.1561781 C65.0775759,32.2931726 69.3155651,27.1099407 69.3155651,21.4230722 L69.3155651,21.4230722 Z" id="Fill-1" fill="#FFFFFF"></path>
                    <path d="M17.5109471,60.3251905 L24.6063734,58.6420698 C24.8621759,58.5809836 25.1342507,58.6550669 25.3243126,58.8389754 C25.5150254,59.022884 25.5983402,59.2906237 25.5456175,59.5492654 L22.180481,76.1627715 L38.2185787,56.3162439 L31.1238033,57.2838759 C30.8302489,57.3267662 30.532789,57.190297 30.3681121,56.9401034 C30.204737,56.68861 30.2008316,56.3662827 30.3576978,56.1108902 L34.0860348,50.0555548 C32.0096739,50.0646528 29.7842577,50.0757003 27.5666522,50.0867478 C25.7682243,50.0951959 23.9808616,50.1042938 22.2839735,50.1120921 C21.6220115,51.4377933 19.3367127,56.3610838 17.5109471,60.3251905 Z" id="Fill-3" fill="#FF0039"></path>
                    <path d="M58.1401873,7.07125147 C58.5684775,7.07125147 58.9160564,6.72422967 58.9160564,6.29662603 L58.9160564,0.775470245 C58.9160564,0.347216754 58.5684775,0.000194956066 58.1401873,0.000194956066 C57.7118972,0.000194956066 57.3643183,0.347216754 57.3643183,0.775470245 L57.3643183,6.29662603 C57.3643183,6.72422967 57.7118972,7.07125147 58.1401873,7.07125147" id="Fill-5" fill="#FFFFFF"></path>
                    <path d="M68.7764273,10.3688034 C68.9749508,10.3688034 69.1734744,10.2927705 69.3251333,10.1413546 L73.4863167,5.98619099 C73.7896346,5.68335924 73.7896346,5.1927198 73.4863167,4.8905379 C73.1836497,4.58770615 72.6922226,4.588356 72.3895556,4.8905379 L68.2277213,9.04635137 C67.9244033,9.34918313 67.9244033,9.83982256 68.2277213,10.1413546 C68.3793802,10.2934203 68.5779038,10.3688034 68.7764273,10.3688034" id="Fill-7" fill="#FFFFFF"></path>
                    <path d="M69.1253731,30.6887492 C68.8227061,30.3852676 68.3306281,30.3865673 68.027961,30.6887492 C67.725294,30.9915809 67.725294,31.4822204 68.027961,31.7844023 L72.1904462,35.938916 C72.3414543,36.0909818 72.5406287,36.1663648 72.7391523,36.1663648 C72.9370249,36.1663648 73.1361993,36.0903319 73.2878583,35.938916 C73.5905253,35.6360843 73.5905253,35.1454449 73.2878583,34.8439128 L69.1253731,30.6887492 Z" id="Fill-9" fill="#FFFFFF"></path>
                    <path d="M46.5028681,10.1415496 C46.6538762,10.2923156 46.8530506,10.3689983 47.0515741,10.3689983 C47.2494467,10.3689983 47.4486212,10.2923156 47.6002801,10.1415496 C47.9029472,9.83936767 47.9029472,9.34872823 47.6002801,9.04589648 L43.4384458,4.89073286 C43.1357788,4.58855095 42.6437008,4.58855095 42.3410338,4.89073286 C42.0383668,5.19291476 42.0383668,5.68355419 42.3410338,5.98573609 L46.5028681,10.1415496 Z" id="Fill-11" fill="#FFFFFF"></path>
                    <path d="M78.6542422,19.5409664 L72.6803112,19.5409664 C72.2520211,19.5409664 71.9044422,19.8879882 71.9044422,20.3155918 C71.9044422,20.7438453 72.2520211,21.0908671 72.6803112,21.0908671 L78.6542422,21.0908671 C79.0825324,21.0908671 79.4301113,20.7438453 79.4301113,20.3155918 C79.4301113,19.8879882 79.0825324,19.5409664 78.6542422,19.5409664" id="Fill-13" fill="#FFFFFF"></path>
                </g>
            </g>
        </g>
    </g>
</svg>