<?xml version="1.0" encoding="UTF-8" standalone="no"?>
<svg width="46px" height="68px" viewBox="0 0 46 68" version="1.1" xmlns="http://www.w3.org/2000/svg" xmlns:xlink="http://www.w3.org/1999/xlink">
    <!-- Generator: Sketch 3.8.3 (29802) - http://www.bohemiancoding.com/sketch -->
    <title>Page 1</title>
    <desc>Created with Sketch.</desc>
    <defs>
        <polygon id="path-1" points="0 67.3049237 45.0979948 67.3049237 45.0979948 0.313000568 0 0.313000568"></polygon>
    </defs>
    <g id="Homepage" stroke="none" stroke-width="1" fill="none" fill-rule="evenodd">
        <g id="Homepage_Mobile" transform="translate(-203.000000, -2428.000000)">
            <g id="Group-16" transform="translate(163.000000, 2417.000000)">
                <g id="Page-1" transform="translate(40.030155, 11.218524)">
                    <g id="Group-3" transform="translate(0.000000, 0.340445)">
                        <mask id="mask-2" fill="white">
                            <use xlink:href="#path-1"></use>
                        </mask>
                        <g id="Clip-2"></g>
                        <path d="M41.3226718,28.2020699 C40.0775945,27.5002691 37.6211802,26.462597 34.1671162,26.5664949 C32.8922683,24.205595 31.2277548,21.9440189 30.9346787,21.5526048 C30.7864867,21.3552642 30.5516289,21.2232681 30.3015549,21.2232681 L30.3002318,21.2232681 C30.0508194,21.2232681 29.8166231,21.3539573 29.6677696,21.5512979 C29.2886892,22.0544513 26.4981813,25.8372494 25.5104553,28.9790171 C24.4757577,29.5089616 23.4013659,30.1414972 22.2872798,30.8936134 C12.0296162,37.8234068 4.26541503,29.3024728 3.93992193,28.9358896 C3.91478222,28.9077915 3.88104208,28.8947225 3.85325608,28.870545 L1.67271696,10.1584694 L25.1816544,10.1584694 C25.3794642,13.0186019 27.2358334,14.7097198 30.2353978,14.7097198 C33.0742004,14.7097198 35.2560626,12.8088458 35.5120908,10.1584694 L43.4251455,10.1584694 L41.3226718,28.2020699 Z M26.84286,30.0643906 C26.9778205,29.4501515 27.2391412,28.7535782 27.5692653,28.0334809 C28.3327186,26.3678474 29.4673135,24.5754454 30.3015549,23.373105 C30.9340171,24.2729 31.7378263,25.4856955 32.4423998,26.7095996 C32.7295217,27.2081788 32.9981197,27.7074114 33.2343006,28.189001 C33.7443721,29.2305937 34.0943434,30.1859316 34.0943434,30.8452584 C34.0943434,33.2296824 32.1857101,34.4771105 30.3002318,34.4771105 C28.6754126,34.4771105 26.7389933,33.8569904 26.7389933,30.9021082 C26.7389933,30.6472643 26.7760413,30.3656292 26.84286,30.0643906 L26.84286,30.0643906 Z M36.9483621,65.7464553 L8.14950033,65.7464553 L4.12846976,31.2327518 C5.98682364,32.7644289 9.61157299,35.1325167 14.2696968,35.1325167 C16.9450912,35.1325167 19.9618565,34.3496886 23.1770932,32.1776345 C23.8558654,31.7189155 24.5174367,31.309205 25.1631304,30.941315 C25.1790081,34.1314377 27.0962418,36.0349255 30.3002318,36.0349255 C33.3626455,36.0349255 35.6715294,33.7968734 35.6715294,30.8380705 C35.6715294,30.0846474 35.3738223,29.1286562 34.9312311,28.1197357 C38.4137426,28.1863872 40.5671573,29.5239909 41.1228772,29.915405 L36.9483621,65.7464553 Z M26.7389933,9.64159368 C26.7389933,9.3312069 26.7985347,8.97769269 26.8964473,8.60000098 C27.4098266,6.61679279 29.1014645,3.88342875 30.2367209,2.24589342 C31.4255646,3.9396251 33.2164382,6.74160095 33.780097,8.60000098 C33.8925641,8.97050478 33.960706,9.30637596 33.960706,9.58539734 C33.960706,9.78535177 33.942182,9.97485107 33.9163807,10.1584694 C33.6358744,12.1240345 31.9283588,13.1512514 30.2353978,13.1512514 C28.7402466,13.1512514 26.9751742,12.6160792 26.7601636,10.1584694 C26.7462706,9.99445445 26.7389933,9.82259819 26.7389933,9.64159368 L26.7389933,9.64159368 Z M44.8978033,8.86137932 C44.7482882,8.69540408 44.5346006,8.60000098 44.3096664,8.60000098 L35.3883769,8.60000098 C34.6507249,5.61832751 31.2945735,1.10236317 30.8698447,0.533865269 C30.7209911,0.335217727 30.4867949,0.313000568 30.2367209,0.313000568 L30.2353978,0.313000568 C29.9859854,0.313000568 29.7517891,0.334564281 29.6029356,0.532558377 C29.1947461,1.07491844 25.9451077,5.39746281 25.2861826,8.60000098 L0.78885766,8.60000098 C0.563923406,8.60000098 0.349574293,8.69540408 0.200059172,8.86137932 C0.05054405,9.02604768 -0.0209056542,9.24756583 0.00489562788,9.46843053 L6.66361112,66.6148849 C6.70925954,67.0082593 7.04599935,67.3049237 7.44691158,67.3049237 L37.6509509,67.3049237 C38.0518631,67.3049237 38.3886029,67.0082593 38.4342513,66.6148849 L45.0929668,9.46843053 C45.1187681,9.24756583 45.0473184,9.02604768 44.8978033,8.86137932 L44.8978033,8.86137932 Z" id="Fill-1" fill="#FFFFFF" mask="url(#mask-2)"></path>
                    </g>
                    <path d="M33.9159176,10.4989147 C33.9423804,10.3152964 33.9609044,10.1257971 33.9609044,9.92584263 C33.9609044,9.64682125 33.8927626,9.31095008 33.7802955,8.94044627 C33.2166367,7.08204624 31.4251015,4.28007039 30.2369194,2.58633872 C29.1010014,4.22387405 27.4100251,6.95723808 26.8966457,8.94044627 C26.7987332,9.31813798 26.7385302,9.67165219 26.7385302,9.98203898 C26.7385302,10.1630435 26.746469,10.3348997 26.760362,10.4989147 C26.9747111,12.9565245 28.7397835,13.4916967 30.2355963,13.4916967" id="Fill-4" fill="#D32155"></path>
                    <path d="M30.2361677,34.8173598 C32.0875589,34.8173598 33.9610368,33.5490946 33.9610368,31.1248412 C33.9610368,30.4545009 33.6180422,29.4838694 33.1165426,28.4242136 C32.8852811,27.9345795 32.6208894,27.4270077 32.3389583,26.9201002 C31.6471226,25.675752 30.8578454,24.4426979 30.2374669,23.5278728 C29.4176579,24.7509614 28.3035752,26.5733037 27.5545738,28.2660956 C27.230418,28.9982215 26.9738216,29.7064304 26.8406514,30.3309297 C26.7756903,30.6372002 26.7386625,30.9235398 26.7386625,31.1826406 C26.7386625,34.1868812 28.6407233,34.8173598 30.2361677,34.8173598 L30.2361677,8.03901771" id="Fill-6" fill="#FF0039"></path>
                </g>
            </g>
        </g>
    </g>
</svg>