<?xml version="1.0" encoding="UTF-8" standalone="no"?>
<svg width="41px" height="26px" viewBox="0 0 41 26" version="1.1" xmlns="http://www.w3.org/2000/svg" xmlns:xlink="http://www.w3.org/1999/xlink">
    <!-- Generator: Sketch 3.8.3 (29802) - http://www.bohemiancoding.com/sketch -->
    <title>Page 1</title>
    <desc>Created with Sketch.</desc>
    <defs></defs>
    <g id="Homepage" stroke="none" stroke-width="1" fill="none" fill-rule="evenodd">
        <g id="Homepage_Mobile" transform="translate(-17.000000, -1692.000000)" fill="#FFFFFF">
            <path d="M57.9743136,1715.85932 L57.9743136,1703.69149 C57.9743136,1702.6835 57.1405126,1701.86581 56.1134019,1701.86581 L49.7519226,1701.86581 L49.7519226,1692 L45.5627303,1692 L40.2840299,1702.17029 L40.2840299,1715.85932 C40.2840299,1716.86731 41.1184426,1717.685 42.1480002,1717.685 L56.1134019,1717.685 C57.1405126,1717.685 57.9743136,1716.86731 57.9743136,1715.85932 L57.9743136,1715.85932 Z M34.6902837,1715.85932 L34.6902837,1703.69149 C34.6902837,1702.6835 33.8564827,1701.86581 32.8263133,1701.86581 L26.4654457,1701.86581 L26.4654457,1692 L22.2787004,1692 L17,1702.17029 L17,1715.85932 C17,1716.86731 17.833801,1717.685 18.8639703,1717.685 L32.8263133,1717.685 C33.8564827,1717.685 34.6902837,1716.86731 34.6902837,1715.85932 L34.6902837,1715.85932 Z" id="Page-1"></path>
        </g>
    </g>
</svg>