<?xml version="1.0" encoding="UTF-8" standalone="no"?>
<svg width="79px" height="80px" viewBox="0 0 79 80" version="1.1" xmlns="http://www.w3.org/2000/svg" xmlns:xlink="http://www.w3.org/1999/xlink">
    <!-- Generator: Sketch 3.8.3 (29802) - http://www.bohemiancoding.com/sketch -->
    <title>Page 1</title>
    <desc>Created with Sketch.</desc>
    <defs>
        <polygon id="path-1" points="0.219624008 11.2413264 1.79858552 11.2413264 1.79858552 0.129804257 0.219624008 0.129804257 0.219624008 11.2413264"></polygon>
        <polygon id="path-3" points="77.8322979 0.15010477 0.00011686681 0.15010477 0.00011686681 64.2295665 77.8322979 64.2295665 77.8322979 0.15010477"></polygon>
    </defs>
    <g id="Homepage" stroke="none" stroke-width="1" fill="none" fill-rule="evenodd">
        <g id="Homepage_Mobile" transform="translate(-187.000000, -2591.000000)">
            <g id="Group-13" transform="translate(164.000000, 2582.000000)">
                <g id="Page-1" transform="translate(23.877636, 8.413893)">
                    <g id="Group-3" transform="translate(56.296866, 69.281617)">
                        <mask id="mask-2" fill="white">
                            <use xlink:href="#path-1"></use>
                        </mask>
                        <g id="Clip-2"></g>
                        <path d="M1.00910476,0.129804257 C0.573300789,0.129804257 0.219624008,0.482914156 0.219624008,0.918019612 L0.219624008,10.4526481 C0.219624008,10.8884149 0.573300789,11.2415248 1.00910476,11.2415248 C1.44490873,11.2415248 1.79858552,10.8884149 1.79858552,10.4526481 L1.79858552,0.918019612 C1.79858552,0.482914156 1.44490873,0.129804257 1.00910476,0.129804257" id="Fill-1" fill="#FFFFFF" mask="url(#mask-2)"></path>
                    </g>
                    <path d="M63.4200751,67.5135547 C63.2021731,67.1359784 62.7193447,67.0063725 62.3418246,67.2245865 C61.9643044,67.4428005 61.8344905,67.924855 62.0530548,68.3011088 L67.3568818,77.4733699 C67.5032537,77.7259691 67.7681801,77.8674776 68.0410543,77.8674776 C68.1748422,77.8674776 68.310617,77.8330923 68.4351324,77.7616768 C68.8126526,77.5441241 68.9418042,77.0614083 68.7239022,76.6851545 L63.4200751,67.5135547 Z" id="Fill-4" fill="#FFFFFF"></path>
                    <path d="M74.8476103,67.4935187 L66.5978014,62.7384376 C66.2189566,62.5202237 65.7367905,62.6491683 65.5195508,63.0267446 C65.3009865,63.4036597 65.4308005,63.8857142 65.8083206,64.1032669 L74.0581296,68.858348 C74.182645,68.9304247 74.3184198,68.96481 74.4522076,68.96481 C74.7244195,68.96481 74.9900083,68.8233015 75.1363801,68.570041 C75.3542821,68.193126 75.2251305,67.7110714 74.8476103,67.4935187" id="Fill-6" fill="#FFFFFF"></path>
                    <path d="M49.0454321,63.0268107 C48.8275301,62.6498957 48.3447017,62.5202898 47.9671815,62.7378425 L39.2159993,67.7818918 C38.8384792,68.0001058 38.7093275,68.481499 38.9272295,68.8584141 C39.0729391,69.1116746 39.3385278,69.253183 39.611402,69.253183 C39.7451899,69.253183 39.8809647,69.2187978 40.0054801,69.1473823 L48.7566623,64.103333 C49.1341825,63.8857803 49.2633341,63.4037258 49.0454321,63.0268107" id="Fill-8" fill="#FFFFFF"></path>
                    <path d="M52.2228272,67.224851 C51.8439824,67.0059758 51.3618163,67.1355817 51.1445766,67.5138192 L46.2997346,75.8905911 C46.0818326,76.2681675 46.2109843,76.7495607 46.5885044,76.9671135 C46.7130198,77.0391902 46.8487946,77.0735754 46.9825825,77.0735754 C47.2554567,77.0735754 47.5210454,76.932067 47.6674173,76.6788065 L52.511597,68.3013733 C52.729499,67.9251195 52.6003474,67.4424037 52.2228272,67.224851" id="Fill-10" fill="#FFFFFF"></path>
                    <g id="Group-14" transform="translate(0.000000, 0.511150)">
                        <mask id="mask-4" fill="white">
                            <use xlink:href="#path-3"></use>
                        </mask>
                        <g id="Clip-13"></g>
                        <path d="M56.838839,23.3766027 L38.9212024,15.283509 C38.5257998,15.1049703 38.0562177,15.280864 37.87673,15.6769554 C37.69658,16.0737081 37.8727561,16.5405538 38.2708081,16.7197537 L54.7664521,24.1714306 L38.9861094,30.2219092 L2.91902561,16.4433493 L38.2105373,1.78862728 L74.8816534,16.4585582 L56.838839,23.3766027 Z M64.793255,31.9451384 C64.1024594,32.648052 61.6532145,34.9875703 57.6462023,37.2636083 L57.6051387,24.7718497 L64.793255,22.015741 L64.793255,31.9451384 Z M38.5960053,42.2792236 C23.298491,42.2792236 15.4805122,34.4493092 14.235358,33.0851412 L14.235358,22.4548139 L38.7046251,31.8023075 C38.7953624,31.8373539 38.8907359,31.8545466 38.9867717,31.8545466 C39.0828076,31.8545466 39.1788434,31.8373539 39.2695807,31.8023075 L56.0281642,25.3762363 L56.0698901,38.1119978 C51.6999287,40.3324904 45.8112765,42.2792236 38.5960053,42.2792236 L38.5960053,42.2792236 Z M61.0299751,58.9349018 C61.0299751,60.985452 59.359614,62.6524746 57.3057719,62.6524746 C55.2525921,62.6524746 53.5822309,60.985452 53.5822309,58.9349018 C53.5822309,57.2764755 54.6757148,55.8686647 56.1811592,55.3919002 C56.5361606,55.2788257 56.9136808,55.217329 57.3057719,55.217329 C57.4322742,55.217329 57.5567897,55.2239416 57.6799805,55.2365054 C59.5583088,55.4243017 61.0299751,57.0106512 61.0299751,58.9349018 L61.0299751,58.9349018 Z M77.336859,15.7424196 L38.4986448,0.206245276 C38.3059108,0.129539755 38.0919827,0.130862264 37.901898,0.210212803 L0.486338689,15.7463871 C0.188296458,15.8700417 -0.00443751766,16.1629774 0.000198694821,16.4856696 C0.0048349073,16.8077006 0.205516676,17.0953463 0.507532803,17.2097433 L12.6570588,21.8510886 L12.6570588,33.6604326 L12.8325725,33.8779853 C13.1630682,34.2853181 21.1300682,43.8556544 38.5960053,43.8556544 C45.7635898,43.8556544 51.625087,42.0623322 56.0758509,39.9185451 L56.086448,43.2142375 C51.7125127,45.237015 45.8205489,47.0111608 38.5960053,47.0111608 C29.8693287,47.0111608 23.656804,44.7119789 19.9816122,42.7830996 C15.9991056,40.6935354 14.0512341,38.574876 14.0320269,38.5537158 C13.7399455,38.2310236 13.2418838,38.2052347 12.9180113,38.4961867 C12.5941387,38.7871387 12.5676461,39.2857246 12.8590652,39.6097393 C13.1902232,39.975413 21.1545739,48.5882528 38.5960053,48.5882528 C45.7735245,48.5882528 51.6409825,46.9463579 56.0924088,44.9883833 L56.1208884,53.7784393 C53.7663548,54.3180229 52.0032694,56.422796 52.0032694,58.9349018 C52.0032694,61.8543404 54.3816464,64.2295665 57.3057719,64.2295665 C60.2298973,64.2295665 62.6089366,61.8543404 62.6089366,58.9349018 C62.6089366,56.1483754 60.4398515,53.8624186 57.6991876,53.6600747 L57.6687211,44.2543908 C63.0155987,41.6252429 65.9278025,38.733577 66.1457044,38.5120568 C66.4510321,38.2025897 66.4477206,37.7040038 66.1370943,37.3985042 C65.8271304,37.0936659 65.3270818,37.0969722 65.0204294,37.405778 C64.9720804,37.4553721 62.4075925,39.9892993 57.6627602,42.4418922 L57.6521632,39.1144596 C63.0261958,36.2201487 65.9523081,33.0289345 66.1708724,32.7855929 L66.3722165,32.5614276 L66.3722165,21.4100318 L77.326262,17.2097433 C77.6296027,17.0933625 77.8302845,16.803733 77.8322715,16.4797183 C77.8349207,16.1557036 77.6382129,15.8627679 77.336859,15.7424196 L77.336859,15.7424196 Z" id="Fill-12" fill="#FFFFFF" mask="url(#mask-4)"></path>
                    </g>
                    <path d="M56.1810267,55.9027193 C54.6762446,56.3801451 53.5820985,57.7872946 53.5820985,59.4463822 C53.5820985,61.4962711 55.2524596,63.1639549 57.3056394,63.1639549 C59.3594815,63.1639549 61.0298427,61.4962711 61.0298427,59.4463822 C61.0298427,57.5221316 59.5581764,55.9351208 57.679848,55.7473245 C57.5566572,55.7347607 57.4321418,55.7288094 57.3056394,55.7288094 C56.9142106,55.7288094 56.5360281,55.7903061 56.1810267,55.9027193" id="Fill-15" fill="#FF003D"></path>
                </g>
            </g>
        </g>
    </g>
</svg>