<?xml version="1.0" encoding="UTF-8" standalone="no"?>
<svg width="73px" height="62px" viewBox="0 0 73 62" version="1.1" xmlns="http://www.w3.org/2000/svg" xmlns:xlink="http://www.w3.org/1999/xlink">
    <!-- Generator: Sketch 3.8.3 (29802) - http://www.bohemiancoding.com/sketch -->
    <title>Page 1</title>
    <desc>Created with Sketch.</desc>
    <defs></defs>
    <g id="Homepage" stroke="none" stroke-width="1" fill="none" fill-rule="evenodd">
        <g id="Homepage_Mobile" transform="translate(-190.000000, -2930.000000)">
            <g id="Group-6" transform="translate(163.000000, 2910.000000)">
                <g id="Page-1" transform="translate(27.389053, 19.632418)">
                    <path d="M23.4625867,19.6692988 L23.4625867,14.6987913 L18.3148492,14.6987913 L18.3148492,19.6692988 C18.3148492,20.1306606 17.9405322,20.5050788 17.4784297,20.5050788 L12.4992403,20.5050788 L12.4992403,25.6438642 L17.4784297,25.6438642 C17.9405322,25.6438642 18.3148492,26.0182825 18.3148492,26.4796443 L18.3148492,31.450853 L23.4625867,31.450853 L23.4625867,26.4796443 C23.4625867,26.0182825 23.837606,25.6438642 24.2997085,25.6438642 L29.2781957,25.6438642 L29.2781957,20.5050788 L24.2997085,20.5050788 C23.837606,20.5050788 23.4625867,20.1306606 23.4625867,19.6692988" id="Fill-1" fill="#FF003D"></path>
                    <path d="M29.2784064,25.6435136 L24.2999192,25.6435136 C23.8371144,25.6435136 23.4627974,26.0179319 23.4627974,26.4792937 L23.4627974,31.4505024 L18.3150599,31.4505024 L18.3150599,26.4792937 C18.3150599,26.0179319 17.9400406,25.6435136 17.4779381,25.6435136 L12.4994509,25.6435136 L12.4994509,20.5054294 L17.4779381,20.5054294 C17.9400406,20.5054294 18.3150599,20.1310112 18.3150599,19.6689482 L18.3150599,14.6991418 L23.4627974,14.6991418 L23.4627974,19.6689482 C23.4627974,20.1310112 23.8371144,20.5054294 24.2999192,20.5054294 L29.2784064,20.5054294 L29.2784064,25.6435136 Z M30.1155282,18.8331681 L25.137041,18.8331681 L25.137041,13.8626606 C25.137041,13.4012988 24.7620217,13.0268805 24.2999192,13.0268805 L17.4779381,13.0268805 C17.0158356,13.0268805 16.6408163,13.4012988 16.6408163,13.8626606 L16.6408163,18.8331681 L11.6623291,18.8331681 C11.2002266,18.8331681 10.8252073,19.2075864 10.8252073,19.6689482 L10.8252073,26.4792937 C10.8252073,26.9413567 11.2002266,27.315775 11.6623291,27.315775 L16.6408163,27.315775 L16.6408163,32.2869836 C16.6408163,32.7483454 17.0158356,33.1227637 17.4779381,33.1227637 L24.2999192,33.1227637 C24.7620217,33.1227637 25.137041,32.7483454 25.137041,32.2869836 L25.137041,27.315775 L30.1155282,27.315775 C30.5776307,27.315775 30.95265,26.9413567 30.95265,26.4792937 L30.95265,19.6689482 C30.95265,19.2075864 30.5776307,18.8331681 30.1155282,18.8331681 L30.1155282,18.8331681 Z" id="Fill-3" fill="#FFFFFF"></path>
                    <g id="Group-7" transform="translate(0.000000, 0.575791)" fill="#FFFFFF">
                        <path d="M66.4462646,31.1419229 C61.6644168,39.6006903 39.5431915,56.9732767 35.8906154,59.8087587 C32.2373371,56.9739778 10.116814,39.6077019 5.33426392,31.1412217 C1.7610459,24.827997 0.78136053,18.6676248 2.50055034,13.3269059 C3.9079263,8.95308371 7.10612499,5.42205312 11.504526,3.38448861 C13.8536641,2.29699289 16.3741592,1.78725118 18.8806088,1.78725118 C25.635873,1.78725118 32.2815809,5.497077 35.1307448,11.629403 C35.26769,11.9245904 35.5647559,12.1132018 35.8906154,12.1132018 C36.2164749,12.1132018 36.5128385,11.9245904 36.6497838,11.6287018 C40.5523727,3.22392348 51.5929703,-0.629639688 60.2767048,3.38448861 C64.6751058,5.42275428 67.8733045,8.95378487 69.2806805,13.3276071 C70.9998703,18.6683259 70.0194826,24.8286982 66.4462646,31.1419229 M70.8748638,12.8157619 C69.3221152,7.99319871 65.8085913,4.10457765 60.9810951,1.86788433 L60.9803928,1.86718317 C51.9995924,-2.28226858 40.7047682,1.28031411 35.8899131,9.47825089 C31.0715466,1.27891179 19.778127,-2.28717668 10.8001358,1.86788433 C5.97263955,4.10457765 2.45911561,7.99249755 0.906366978,12.8150608 C-0.959600061,18.6122333 0.0678405781,25.2332662 3.87632355,31.9636798 C9.23334146,41.4482411 34.316096,60.7139534 35.3807576,61.5293999 C35.5310463,61.6443898 35.7108309,61.7018847 35.8906154,61.7018847 C36.0704,61.7018847 36.2494822,61.6443898 36.3997709,61.5286988 C37.4651348,60.7132523 62.5471871,41.4405283 67.904205,31.9643809 C71.7133902,25.2339674 72.7401286,18.6129345 70.8748638,12.8157619" id="Fill-5"></path>
                    </g>
                </g>
            </g>
        </g>
    </g>
</svg>