<?xml version="1.0" encoding="UTF-8" standalone="no"?>
<svg width="66px" height="64px" viewBox="0 0 66 64" version="1.1" xmlns="http://www.w3.org/2000/svg" xmlns:xlink="http://www.w3.org/1999/xlink">
    <!-- Generator: Sketch 3.8.3 (29802) - http://www.bohemiancoding.com/sketch -->
    <title>Page 1</title>
    <desc>Created with Sketch.</desc>
    <defs>
        <polygon id="path-1" points="65.0131851 63.1040601 65.0131851 0.651375579 0.000140456683 0.651375579 0.000140456683 63.1040601"></polygon>
    </defs>
    <g id="Homepage" stroke="none" stroke-width="1" fill="none" fill-rule="evenodd">
        <g id="Homepage_Mobile" transform="translate(-59.000000, -2436.000000)">
            <g id="Group-18" transform="translate(29.000000, 2417.000000)">
                <g id="Page-1" transform="translate(30.198187, 18.931260)">
                    <g id="Group-3" transform="translate(0.000000, 0.049993)">
                        <mask id="mask-2" fill="white">
                            <use xlink:href="#path-1"></use>
                        </mask>
                        <g id="Clip-2"></g>
                        <path d="M30.2130754,33.2305317 C30.3408909,32.5896734 30.4097147,31.9873789 30.4097147,31.3949006 C30.4097147,25.5837049 25.6735153,20.8550968 19.8522881,20.8550968 C14.0310609,20.8550968 9.29556377,25.5837049 9.29556377,31.3949006 C9.29556377,31.9467118 9.35596014,32.5083391 9.46692092,33.1043233 C5.6689722,33.0398167 2.8612431,32.9507697 1.68140696,32.8350787 C1.93563355,20.7323942 9.04133717,10.3068792 19.2230422,5.37002721 C20.0980873,10.3384313 24.436092,14.0826138 29.5718906,14.0826138 C35.3924156,14.0826138 40.1279126,9.35470689 40.1279126,3.54351119 C40.1279126,3.45165953 40.1173784,3.36822175 40.1131647,3.27987587 C43.2488601,4.08410384 46.1893208,5.37984342 48.8601046,7.07033483 C44.5677484,9.01184073 42.0044139,13.6226543 42.7937805,18.3491589 C43.2579898,21.1257437 44.7777311,23.5566577 47.0720911,25.1924588 C48.8818754,26.4825892 51.0034736,27.157103 53.1833614,27.157103 C53.7669589,27.157103 54.3561747,27.1080219 54.9439859,27.010561 C57.5901898,26.5702339 59.9316027,25.1230442 61.5538774,22.9831107 C62.633287,26.0345493 63.2597238,29.3005423 63.3313567,32.7039622 C60.1226238,33.0328052 44.8360207,33.2172097 30.2130754,33.2305317 L30.2130754,33.2305317 Z M41.3878091,58.1237364 C41.3878091,59.9481489 39.9017774,61.4317988 38.0744359,61.4317988 L26.9390301,61.4317988 C25.1116886,61.4317988 23.6249546,59.9481489 23.6249546,58.1237364 L23.6249546,35.0465303 L41.3878091,35.0465303 L41.3878091,58.1237364 Z M11.1748742,33.1260591 C11.0358221,32.5013276 10.9705097,31.9404013 10.9705097,31.3949006 C10.9705097,26.5050262 14.9552658,22.5273581 19.8522881,22.5273581 C24.7500126,22.5273581 28.7347688,26.5050262 28.7347688,31.3949006 C28.7347688,31.9733558 28.661029,32.5679375 28.5058244,33.2312328 L28.5058244,33.2340374 C25.1194137,33.2340374 21.8580095,33.2235201 18.8452137,33.2038877 C16.0325686,33.1856576 13.4355245,33.1597147 11.1748742,33.1260591 L11.1748742,33.1260591 Z M38.453669,3.54351119 C38.453669,8.43338556 34.4696151,12.4103525 29.5718906,12.4103525 C25.120116,12.4103525 21.3769454,9.06372641 20.8066913,4.68990417 C22.3180052,4.05395406 23.8672424,3.54561467 25.4417618,3.16488599 C25.9726881,3.03867759 26.5064235,2.92018193 27.047884,2.82201984 C27.164463,2.8009851 27.2817444,2.77924921 27.3990257,2.7596168 C27.65255,2.71544386 27.9067766,2.6747767 28.1610032,2.63761534 C28.5107403,2.58783314 28.8618821,2.54155673 29.2158329,2.50369421 C29.2846567,2.49598147 29.3534804,2.4854641 29.4223042,2.47845253 C29.8844067,2.43217611 30.3507229,2.39781938 30.8191459,2.3725777 C30.9195725,2.36696844 31.0207013,2.36276149 31.1218301,2.35855454 C31.5158111,2.34032444 31.9118989,2.33050823 32.3100936,2.32840476 C32.407711,2.3277036 32.5053284,2.32560013 32.6029458,2.32560013 C33.0503004,2.32700244 33.4962503,2.33892213 33.9393912,2.3592557 C34.1648241,2.37047423 34.3902571,2.38800317 34.6156901,2.4041298 C34.7989861,2.41675064 34.9815798,2.43007264 35.1634712,2.44549811 C35.770244,2.49808494 36.3692918,2.57591346 36.9655304,2.66355818 C37.261894,2.70773112 37.5582576,2.76172027 37.8553235,2.81500826 C38.040024,2.84796268 38.2240223,2.88442288 38.4080205,2.92018193 C38.434005,3.13263273 38.453669,3.33947428 38.453669,3.54351119 L38.453669,3.54351119 Z M60.6718094,21.3381945 C59.3100819,23.4921512 57.1428353,24.9498583 54.6686908,25.3614379 C52.330087,25.7491781 49.976033,25.2078843 48.0454559,23.8315116 C46.1141765,22.45584 44.8360207,20.4105628 44.4455511,18.0743051 C43.7383517,13.8407144 46.2279464,9.70809041 50.2738012,8.29175169 C54.8716507,11.6264581 58.455403,16.1222818 60.6718094,21.3381945 L60.6718094,21.3381945 Z M32.5060307,0.651235347 C14.581651,0.651235347 0.000140456683,15.3909742 0.000140456683,33.5088913 C0.000140456683,34.5192597 0.000140456683,34.6019963 9.32857109,34.7688718 C11.8055247,34.8130448 14.7782904,34.8474015 18.0755111,34.8705397 C18.1864718,34.8712409 18.2995395,34.871942 18.4105002,34.8726432 C18.7848173,34.8754478 19.1584321,34.8775513 19.5404743,34.8803559 C20.0285612,34.8831605 20.5215642,34.8859652 21.0208877,34.8880686 C21.1002457,34.8887698 21.1796038,34.8887698 21.2589618,34.889471 C21.4893107,34.8901721 21.7182551,34.8915744 21.9507109,34.8922756 L21.9507109,58.1237364 C21.9507109,60.8701714 24.1881859,63.1040601 26.9390301,63.1040601 L38.0744359,63.1040601 C40.8252801,63.1040601 43.062755,60.8701714 43.062755,58.1237364 L43.062755,34.8474015 C46.6282479,34.8179529 49.9479417,34.7765846 52.8266014,34.7268024 C65.0133255,34.5136504 65.0133255,34.4063733 65.0133255,33.374269 C65.0133255,15.3306747 50.4304104,0.651235347 32.5060307,0.651235347 L32.5060307,0.651235347 Z" id="Fill-1" fill="#FFFFFF" mask="url(#mask-2)"></path>
                    </g>
                    <path d="M28.506035,33.2813656 C28.6612397,32.6180703 28.7349794,32.0234885 28.7349794,31.4443322 C28.7349794,26.555159 24.7502233,22.5774909 19.8524988,22.5774909 C14.9547742,22.5774909 10.9707204,26.555159 10.9707204,31.4443322 C10.9707204,31.9905341 11.0353305,32.5514603 11.1750849,33.1761919 C13.4357352,33.2098475 16.0327793,33.2357903 18.8454244,33.2540204 C21.8582202,33.2736529 25.1196244,33.2834691 28.5053328,33.2834691 C28.5057419,33.2830606 25.0456932,31.8380097 22.1566073,30.6313975 C20.0860013,29.7666194 18.3086749,29.0243172 18.3087482,29.0240977" id="Fill-4" fill="#FF0035"></path>
                    <path d="M36.96539,2.71383119 C36.3691513,2.62618647 35.7701036,2.54835796 35.164033,2.49577112 C34.9814393,2.47964449 34.7988456,2.4663225 34.6162519,2.45440281 C34.3901167,2.43827618 34.1646837,2.42004608 33.9392507,2.40952872 C33.4961099,2.38849398 33.0508622,2.37727546 32.6028054,2.37587314 C32.505188,2.37517198 32.4075706,2.37797662 32.3099532,2.37797662 C31.9124608,2.38078125 31.5163729,2.39059746 31.1216896,2.4081264 C31.0205608,2.4130345 30.919432,2.41654029 30.8190055,2.42214956 C30.3505824,2.44809239 29.8849685,2.48174797 29.4221638,2.52872554 C29.35334,2.53573712 29.2845162,2.54625448 29.2156924,2.55396722 C28.8624439,2.59182974 28.5113022,2.63740499 28.1608627,2.68788835 C27.9066362,2.72504972 27.6524096,2.76571687 27.3988852,2.80918865 C27.2816039,2.82952223 27.1650249,2.85055696 27.0477435,2.87229285 C26.506283,2.97045494 25.9725476,3.08824945 25.4416214,3.21515901 C23.8671019,3.59588768 22.318567,4.10352591 20.8065508,4.73947602 C21.3768049,9.11399942 25.1206778,12.4606255 29.5717501,12.4606255 C34.4694747,12.4606255 38.4535285,8.48295742 38.4535285,3.59378421 C38.4535285,3.38904614 38.4345669,3.18290575 38.4085824,2.97045494 C38.2245841,2.93469589 38.0405859,2.89753453 37.855183,2.86458012 C37.5581172,2.81199328 37.2617536,2.75800413 36.96539,2.71383119" id="Fill-6" fill="#FF0039"></path>
                    <path d="M44.4454809,18.123947 C44.8359504,20.4602048 46.1141063,22.505482 48.0453857,23.8818547 C49.9759628,25.2582274 52.3307191,25.7988201 54.6686206,25.411781 C57.142765,25.0002014 59.3100117,23.5424944 60.6717392,21.3878365 C58.4553327,16.1726249 54.8715805,11.6768012 50.2737309,8.34209482 C46.2278762,9.75773238 43.7382815,13.8910575 44.4454809,18.123947" id="Fill-8" fill="#FF0035"></path>
                </g>
            </g>
        </g>
    </g>
</svg>