<?xml version="1.0" encoding="UTF-8" standalone="no"?>
<svg width="67px" height="74px" viewBox="0 0 67 74" version="1.1" xmlns="http://www.w3.org/2000/svg" xmlns:xlink="http://www.w3.org/1999/xlink">
    <!-- Generator: Sketch 3.8.3 (29802) - http://www.bohemiancoding.com/sketch -->
    <title>Page 1</title>
    <desc>Created with Sketch.</desc>
    <defs>
        <polygon id="path-1" points="0.000280913368 2.10347334 66.4313762 2.10347334 66.4313762 0.431352267 0.000280913368 0.431352267"></polygon>
        <polygon id="path-3" points="62.3037065 0.620524636 0.0309909327 0.620524636 0.0309909327 69.267237 62.3037065 69.267237 62.3037065 0.620524636"></polygon>
    </defs>
    <g id="Homepage" stroke="none" stroke-width="1" fill="none" fill-rule="evenodd">
        <g id="Homepage_Mobile" transform="translate(-59.000000, -2758.000000)">
            <g id="Group-12" transform="translate(30.000000, 2747.000000)">
                <g id="Page-1" transform="translate(29.495904, 10.517367)">
                    <g id="Group-3" transform="translate(0.000000, 72.299885)">
                        <mask id="mask-2" fill="white">
                            <use xlink:href="#path-1"></use>
                        </mask>
                        <g id="Clip-2"></g>
                        <path d="M65.5942544,0.431352267 L0.837402747,0.431352267 C0.374597975,0.431352267 0.000280913368,0.805770522 0.000280913368,1.26713234 C0.000280913368,1.72919532 0.374597975,2.10361358 0.837402747,2.10361358 L65.5942544,2.10361358 C66.0563569,2.10361358 66.4313762,1.72919532 66.4313762,1.26713234 C66.4313762,0.805770522 66.0563569,0.431352267 65.5942544,0.431352267" id="Fill-1" fill="#FFFFFF" mask="url(#mask-2)"></path>
                    </g>
                    <path d="M54.4591996,44.7869441 C60.7277814,44.7869441 62.2587593,39.8823454 62.6253512,37.8251485 L46.2972618,37.8251485 C46.6715788,39.8837477 48.2180069,44.7869441 54.4591996,44.7869441" id="Fill-4" fill="#FF003D"></path>
                    <path d="M54.4591996,44.7869441 C48.2180069,44.7869441 46.6715788,39.8837477 46.2972618,37.8251485 L62.6253512,37.8251485 C62.2587593,39.8823454 60.7277814,44.7869441 54.4591996,44.7869441 M63.5734338,36.1535883 L45.3456677,36.1535883 C45.1160211,36.1535883 44.8962064,36.2475435 44.7381926,36.414419 C44.5801788,36.5812946 44.4973094,36.8049639 44.5099505,37.0342425 C44.5155687,37.1281976 45.1279599,46.4592054 54.4591996,46.4592054 C63.7904394,46.4592054 64.4035328,37.1288988 64.4091511,37.0342425 C64.4217922,36.8049639 64.3389228,36.5812946 64.180909,36.4151202 C64.0228952,36.2475435 63.8030805,36.1535883 63.5734338,36.1535883" id="Fill-6" fill="#FFFFFF"></path>
                    <g id="Group-10" transform="translate(2.106850, 0.080633)">
                        <mask id="mask-4" fill="white">
                            <use xlink:href="#path-3"></use>
                        </mask>
                        <g id="Clip-9"></g>
                        <path d="M28.3361527,5.06081663 C28.3361527,3.53369499 29.5798966,2.29264571 31.1087676,2.29264571 C32.6383409,2.29264571 33.8813826,3.53369499 33.8813826,5.06081663 C33.8813826,6.58723712 32.6383409,7.8282864 31.1087676,7.8282864 C29.5798966,7.8282864 28.3361527,6.58723712 28.3361527,5.06081663 M0.512385981,34.0908522 C0.627560462,34.1448414 0.748353209,34.1707842 0.86774139,34.1707842 C1.18236436,34.1707842 1.48364395,33.9926902 1.62620748,33.68979 L9.81553441,16.2772377 L18.3433619,33.7017097 C18.5463219,34.1153928 19.0463476,34.2878776 19.4628017,34.0859441 C19.8785535,33.8826084 20.0506129,33.3826829 19.847653,32.9675975 L11.1414455,15.1792246 L30.2716458,15.1792246 L30.2716458,67.5956768 L9.98197558,67.5956768 C9.51987309,67.5956768 9.14485375,67.9700951 9.14485375,68.4314569 C9.14485375,68.8928187 9.51987309,69.267237 9.98197558,69.267237 L31.1087676,69.267237 L52.2355597,69.267237 C52.6976622,69.267237 53.0733838,68.8928187 53.0733838,68.4314569 C53.0733838,67.9700951 52.6976622,67.5956768 52.2355597,67.5956768 L31.9465917,67.5956768 L31.9465917,15.1792246 L50.8527636,15.1792246 L42.4815453,32.978816 C42.2849059,33.396706 42.4646905,33.8945281 42.8832514,34.0908522 C42.9984259,34.1448414 43.1192186,34.1707842 43.2386068,34.1707842 C43.5532298,34.1707842 43.8545094,33.9926902 43.9970729,33.68979 L52.1856975,16.2772377 L60.7142274,33.7017097 C60.9178896,34.1153928 61.4165108,34.2878776 61.8336671,34.0859441 C62.2494189,33.8826084 62.4214783,33.3826829 62.2185184,32.9675975 L53.0523153,14.2403743 C53.0073691,13.8876919 52.7496311,13.6149416 52.4069168,13.54132 C52.4005963,13.5399177 52.394978,13.5392165 52.3893597,13.5378142 C52.338093,13.527998 52.2903378,13.5069633 52.2355597,13.5069633 L52.1702473,13.5069633 L52.1639268,13.5069633 L31.9465917,13.5069633 L31.9465917,9.4192134 C33.9993662,9.02656504 35.5563285,7.22248607 35.5563285,5.06081663 C35.5563285,2.61237366 33.5611413,0.620384405 31.1087676,0.620384405 C28.6563939,0.620384405 26.6612067,2.61237366 26.6612067,5.06081663 C26.6612067,7.22248607 28.2181691,9.02656504 30.2716458,9.4192134 L30.2716458,13.5069633 L9.98197558,13.5069633 C9.95528881,13.5069633 9.93281574,13.5195841 9.90683125,13.5216876 C9.87171708,13.5174806 9.8373052,13.5069633 9.80008417,13.5069633 L9.79446591,13.5069633 C9.47211782,13.5097679 9.17996792,13.6962759 9.04232037,13.9872563 L0.110679867,32.978816 C-0.0859594903,33.396706 0.0938250645,33.8945281 0.512385981,34.0908522" id="Fill-8" fill="#FFFFFF" mask="url(#mask-4)"></path>
                    </g>
                    <path d="M20.2509744,37.8253588 L3.92639636,37.8253588 C4.30071342,39.8839581 5.8471415,44.7871544 12.0890365,44.7871544 C18.3302292,44.7871544 19.8766573,39.8839581 20.2509744,37.8253588" id="Fill-11" fill="#FF0039"></path>
                    <path d="M3.92632613,37.8253588 L20.2509042,37.8253588 C19.8765871,39.8839581 18.330159,44.7871544 12.0889663,44.7871544 C5.84707128,44.7871544 4.30064319,39.8839581 3.92632613,37.8253588 M22.0382155,37.0344528 C22.0508566,36.8051743 21.9679871,36.5815049 21.8099734,36.4139282 C21.6519596,36.2477538 21.4321449,36.1530975 21.2024982,36.1530975 L2.97543438,36.1530975 C2.74508542,36.1530975 2.52527071,36.2477538 2.36725694,36.4139282 C2.20924317,36.5815049 2.12637373,36.8051743 2.13901483,37.0344528 C2.1446331,37.128408 2.75702424,46.4587146 12.0889663,46.4587146 C21.4202061,46.4587146 22.0325972,37.128408 22.0382155,37.0344528" id="Fill-13" fill="#FFFFFF"></path>
                </g>
            </g>
        </g>
    </g>
</svg>