<?xml version="1.0" encoding="UTF-8" standalone="no"?>
<svg width="53px" height="82px" viewBox="0 0 53 82" version="1.1" xmlns="http://www.w3.org/2000/svg" xmlns:xlink="http://www.w3.org/1999/xlink">
    <!-- Generator: Sketch 3.8.3 (29802) - http://www.bohemiancoding.com/sketch -->
    <title>Page 1</title>
    <desc>Created with Sketch.</desc>
    <defs>
        <polygon id="path-1" points="0 0.523432784 0 10.9903958 10.3167618 10.9903958 10.3167618 0.523432784 7.57323566e-21 0.523432784"></polygon>
    </defs>
    <g id="Homepage" stroke="none" stroke-width="1" fill="none" fill-rule="evenodd">
        <g id="Homepage_Mobile" transform="translate(-65.000000, -3080.000000)">
            <g id="Group-8" transform="translate(30.000000, 3074.000000)">
                <g id="Page-1" transform="translate(35.816454, 6.310420)">
                    <path d="M38.3467875,53.0884138 C38.4741953,53.2151831 38.6435135,53.2824943 38.8161846,53.2824943 C38.9022408,53.2824943 38.9894146,53.2651056 39.0721179,53.2308891 C39.3202278,53.1265568 39.4817228,52.8836758 39.4817228,52.6133093 L39.4817228,33.2574281 C39.4817228,30.5952722 38.7558336,28.5736941 37.324731,27.2476645 C36.0176834,26.0366248 34.459173,25.7337246 33.5673184,25.6664135 L33.5673184,20.3045197 C33.5673184,9.1078713 27.2488971,0.606473434 26.9795526,0.250846208 C26.727531,-0.0834658223 26.1698424,-0.0834658223 25.9178209,0.250846208 C25.6484763,0.606473434 19.3294962,9.1078713 19.3294962,20.3045197 L19.3294962,25.6664135 C18.4376416,25.7337246 16.8791312,26.0366248 15.5720836,27.2476645 C14.140981,28.5736941 13.4150918,30.5952722 13.4150918,33.2574281 L13.4150918,52.6133093 C13.4150918,52.8836758 13.5765868,53.1265568 13.8246968,53.2308891 C14.0722479,53.3335386 14.3589154,53.2780069 14.5500272,53.0884138 L20.269967,47.3950126 L20.3783754,47.3950126 L23.3523418,47.3950126 C23.720595,47.3950126 24.0184387,47.0949171 24.0184387,46.7258277 C24.0184387,46.3567382 23.720595,46.0572036 23.3523418,46.0572036 L21.0444723,46.0572036 L21.0444723,32.2528092 C21.0444723,31.8837197 20.7460699,31.5841851 20.3783754,31.5841851 C20.0106809,31.5841851 19.7122785,31.8837197 19.7122785,32.2528092 L19.7122785,46.1273194 C19.6452217,46.1598531 19.5804002,46.1979961 19.5267548,46.2512841 L14.7472857,51.0084994 L14.7472857,33.2574281 C14.7472857,30.991847 15.3245325,29.304581 16.4633794,28.2416258 C17.9425393,26.8606254 19.9251836,26.9868338 19.9419478,26.9907603 C20.1297067,27.0031007 20.3107599,26.9419597 20.4471086,26.8151904 C20.5840161,26.688982 20.6616901,26.5106074 20.6616901,26.323819 L20.6616901,20.3045197 C20.6616901,11.4396416 24.9276163,4.14760069 26.4492455,1.8292926 C27.9714335,4.14535699 32.2351245,11.4273012 32.2351245,20.3045197 L32.2351245,26.323819 C32.2351245,26.5106074 32.3127986,26.688982 32.4497061,26.8151904 C32.5860548,26.9419597 32.7715784,27.0031007 32.9548668,26.9907603 C32.9733074,26.9885166 34.9296878,26.8488459 36.4211414,28.2309682 C37.5683705,29.2928015 38.1495289,30.9839941 38.1495289,33.2574281 L38.1495289,51.0084994 L33.5673184,46.4470473 L33.5673184,32.2528092 C33.5673184,31.8837197 33.2689159,31.5841851 32.9012214,31.5841851 C32.533527,31.5841851 32.2351245,31.8837197 32.2351245,32.2528092 L32.2351245,46.0572036 L29.5416788,46.0572036 C29.1734256,46.0572036 28.8755819,46.3567382 28.8755819,46.7258277 C28.8755819,47.0949171 29.1734256,47.3950126 29.5416788,47.3950126 L32.6268476,47.3950126 L38.3467875,53.0884138 Z" id="Fill-1" fill="#FFFFFF"></path>
                    <path d="M26.5256343,69.3142145 C26.2171733,69.3142145 25.9668282,69.5649486 25.9668282,69.8751408 L25.9668282,80.532739 C25.9668282,80.8429312 26.2171733,81.0936653 26.5256343,81.0936653 C26.8340953,81.0936653 27.0844405,80.8429312 27.0844405,80.532739 L27.0844405,69.8751408 C27.0844405,69.5649486 26.8340953,69.3142145 26.5256343,69.3142145" id="Fill-3" fill="#FFFFFF"></path>
                    <path d="M38.5162175,65.2896811 C38.3323703,64.9693922 37.9250006,64.8600116 37.6064811,65.0445563 C37.2879616,65.229662 37.1784356,65.6380163 37.3628416,65.9577442 L43.1626907,76.0420759 C43.2861869,76.2569106 43.5102682,76.3769488 43.7399375,76.3769488 C43.8528163,76.3769488 43.9673716,76.3477807 44.0724272,76.2866397 C44.3909467,76.102095 44.4999139,75.6931798 44.3160666,75.3740127 L38.5162175,65.2896811 Z" id="Fill-5" fill="#FFFFFF"></path>
                    <path d="M15.3459906,64.9024176 C15.0269123,64.7178729 14.6195426,64.8272535 14.4362542,65.1475424 L8.55426058,75.3737884 C8.37041335,75.6935163 8.47938055,76.1024315 8.79790006,76.2869763 C8.90295562,76.3475563 9.01751088,76.3767245 9.13038973,76.3767245 C9.36061787,76.3767245 9.58414033,76.2566862 9.70763649,76.0418515 L15.5896301,65.8156055 C15.7734774,65.4958775 15.6645102,65.0869623 15.3459906,64.9024176" id="Fill-7" fill="#FFFFFF"></path>
                    <path d="M20.2843842,68.5215697 C19.9289835,68.4290169 19.5646419,68.6427298 19.4713212,68.9994788 L16.8851663,78.9306777 C16.7924045,79.2879877 17.0053097,79.6531506 17.361828,79.7468253 C17.4182674,79.7614094 17.4747068,79.7687014 17.5305874,79.7687014 C17.8261959,79.7687014 18.0960993,79.5690117 18.1743321,79.2689162 L20.7604871,69.3377174 C20.8538077,68.9798464 20.6403437,68.6152444 20.2843842,68.5215697" id="Fill-9" fill="#FFFFFF"></path>
                    <path d="M33.2334876,68.6426176 C33.1362553,68.2864294 32.7702373,68.0760821 32.4148366,68.1748051 C32.0599947,68.2724063 31.85156,68.6403739 31.9487922,68.996562 L34.7243824,79.1465221 C34.8054093,79.443252 35.0736363,79.6384544 35.3664507,79.6384544 C35.4245665,79.6384544 35.4843588,79.6306014 35.5430334,79.6143345 C35.8978754,79.5167334 36.1068689,79.1482048 36.0090778,78.7925776 L33.2334876,68.6426176 Z" id="Fill-11" fill="#FFFFFF"></path>
                    <path d="M26.4495249,15.6975765 C25.111743,15.6975765 24.0237474,16.7896999 24.0237474,18.1331182 L24.0237474,21.6114217 C24.9726002,21.6254448 26.9496564,21.617031 28.8758613,21.5962767 L28.8758613,18.1331182 C28.8758613,16.7896999 27.7873069,15.6975765 26.4495249,15.6975765" id="Fill-13" fill="#FF003D"></path>
                    <path d="M28.8757495,21.5960523 C26.9495447,21.6168066 24.9724885,21.6257814 24.0236356,21.6111973 L24.0236356,18.1328938 C24.0236356,16.7900364 25.11219,15.6973521 26.4494132,15.6973521 C27.7871951,15.6973521 28.8757495,16.7900364 28.8757495,18.1328938 L28.8757495,21.5960523 Z M30.2079434,22.2573843 L30.2079434,18.1328938 C30.2079434,16.0524184 28.5220252,14.360104 26.4494132,14.360104 C24.3773599,14.360104 22.6914417,16.0524184 22.6914417,18.1328938 L22.6914417,22.1973652 C22.6852949,22.2792605 22.6942358,22.3617166 22.7188232,22.4430509 C22.8445546,22.8514052 22.8786418,22.9635904 25.4485913,22.9635904 C26.412532,22.9635904 27.7335497,22.9473236 29.5496697,22.9260084 C29.9145702,22.921521 30.2079434,22.6236692 30.2079434,22.2573843 L30.2079434,22.2573843 Z" id="Fill-15" fill="#FFFFFF"></path>
                    <path d="M26.4484073,31.5842412 C26.0807129,31.5842412 25.7823104,31.8837758 25.7823104,32.2528653 L25.7823104,52.6133654 C25.7823104,52.9824549 26.0807129,53.2825504 26.4484073,53.2825504 C26.8161018,53.2825504 27.1145043,52.9824549 27.1145043,52.6133654 L27.1145043,32.2528653 C27.1145043,31.8837758 26.8161018,31.5842412 26.4484073,31.5842412" id="Fill-17" fill="#FFFFFF"></path>
                    <path d="M51.7357831,69.8247696 L42.8926756,61.0558099 C42.6311543,60.796662 42.2098145,60.7983448 41.9505284,61.0614192 C41.69236,61.3244936 41.6945952,61.7479929 41.9566753,62.0065799 L50.7992239,70.7755395 C50.9294258,70.9045526 51.0981852,70.9690591 51.2675035,70.9690591 C51.4396158,70.9690591 51.6111693,70.9028698 51.7413711,70.7704912 C52.0000984,70.5074168 51.9973044,70.0839175 51.7357831,69.8247696" id="Fill-19" fill="#FFFFFF"></path>
                    <g id="Group-23" transform="translate(0.000000, 60.339395)">
                        <mask id="mask-2" fill="white">
                            <use xlink:href="#path-1"></use>
                        </mask>
                        <g id="Clip-22"></g>
                        <path d="M10.1188619,0.716471067 C9.85734066,0.457323151 9.43544201,0.45900593 9.17671476,0.722080329 L0.192229319,9.85171557 C-0.066497933,10.11479 -0.0637039022,10.5382893 0.197817381,10.7974372 C0.328019216,10.9258893 0.496778676,10.9903958 0.666096943,10.9903958 C0.83820924,10.9903958 1.00976273,10.9242065 1.13996457,10.7918279 L10.12445,1.66219268 C10.3831773,1.39911828 10.3803832,0.975618983 10.1188619,0.716471067" id="Fill-21" fill="#FFFFFF" mask="url(#mask-2)"></path>
                    </g>
                </g>
            </g>
        </g>
    </g>
</svg>