<?xml version="1.0" encoding="UTF-8" standalone="no"?>
<svg width="46px" height="76px" viewBox="0 0 46 76" version="1.1" xmlns="http://www.w3.org/2000/svg" xmlns:xlink="http://www.w3.org/1999/xlink">
    <!-- Generator: Sketch 3.8.3 (29802) - http://www.bohemiancoding.com/sketch -->
    <title>Page 1</title>
    <desc>Created with Sketch.</desc>
    <defs>
        <polygon id="path-1" points="45.447714 0.130509361 45.447714 74.996915 0 74.996915 0 0.130509361 45.447714 0.130509361"></polygon>
    </defs>
    <g id="Homepage" stroke="none" stroke-width="1" fill="none" fill-rule="evenodd">
        <g id="Homepage_Mobile" transform="translate(-71.000000, -2924.000000)">
            <g id="Group-5" transform="translate(30.000000, 2910.000000)">
                <g id="Page-1" transform="translate(41.434722, 14.023156)">
                    <path d="M17.3781369,30.8682933 C17.3266919,30.8275183 17.2716239,30.7831027 17.2194543,30.7415995 C17.1752551,30.8355277 17.1411999,30.8974183 17.1317804,30.9134371 C17.1209117,30.9316402 17.1085939,30.9491153 17.0970006,30.9673184 C17.0672929,31.0095497 16.7129742,31.5039468 16.0854895,32.0536815 C16.1586719,32.1119315 16.2347526,32.173094 16.3064859,32.2298878 C19.1562517,34.4929015 21.0502989,36.0030336 22.0386235,39.4477948 L22.0306531,35.3411676 C20.8452433,33.6227917 19.275807,32.3755129 17.3781369,30.8682933" id="Fill-1" fill="#FFFFFF"></path>
                    <path d="M18.9288066,11.0439875 C18.9592389,12.6487758 19.4157231,13.8640171 20.2873906,14.6554894 C21.5264192,15.7811712 23.2907669,15.768065 23.5820473,15.7542306 C23.9044846,15.675593 26.1427064,14.978777 26.4622454,10.6551685 C26.7484537,6.79246331 23.8914422,3.80350859 22.6908162,2.72661114 C21.5445336,3.77729608 18.8469293,6.71455389 18.9288066,11.0439875" id="Fill-3" fill="#FF003D"></path>
                    <path d="M15.7887748,29.6405283 C16.0003516,28.8534248 16.1155595,26.961755 13.5976505,24.5188943 C10.8362833,21.840121 6.71343374,22.1299149 5.11936185,22.3665557 C5.19037051,23.9254721 5.71496508,27.885018 9.07845675,30.5885476 C10.3261803,31.5911762 11.5456453,32.0113046 12.7114915,31.8474764 C13.5396843,31.7280638 14.232381,31.3239542 14.7410348,30.9205727 C15.2467904,30.5193756 15.5692276,30.1196348 15.6576262,30.0038629 C15.6851601,29.9470691 15.7395035,29.8232878 15.7887748,29.6405283" id="Fill-5" fill="#FF003D"></path>
                    <path d="M14.740745,30.9204999 C14.2328157,31.3238814 13.5393945,31.727991 12.7112017,31.8474035 C11.5453554,32.0112318 10.3258905,31.5918315 9.0788915,30.5892029 C5.71467525,27.8849452 5.19008068,23.9253993 5.11907202,22.3664829 C6.71386848,22.1298421 10.8359935,21.8400482 13.5973607,24.5188215 C16.1152697,26.9616822 16.0000618,28.8533519 15.788485,29.6404555 C15.7392137,29.823215 15.6855949,29.9469963 15.6573363,30.0037901 C15.5689378,30.119562 15.2465005,30.5193028 14.740745,30.9204999 M17.0970731,30.9670999 C17.1086663,30.9496249 17.1202596,30.9314218 17.1318528,30.9132187 C17.1412723,30.8971999 17.1753275,30.8353093 17.2195268,30.7421092 C17.5651505,30.0059744 18.6201363,26.9784291 14.7972621,23.2700865 C10.6352853,19.2326312 4.31406572,20.7340257 4.04597181,20.8010133 C3.68078444,20.8913008 3.41486426,21.2087635 3.39022861,21.5859324 C3.37356331,21.844417 3.03083786,27.9512046 7.99999466,31.9442442 C9.38611262,33.0582761 10.7954171,33.6203889 12.2003741,33.6203889 C12.4525273,33.6203889 12.7046805,33.6014576 12.9561091,33.5657795 C14.3139685,33.3699137 15.3754754,32.6760102 16.085562,32.0541912 C16.7130467,31.5037284 17.0673654,31.0100593 17.0970731,30.9670999" id="Fill-7" fill="#FFFFFF"></path>
                    <g id="Group-11" transform="translate(0.000000, 0.597791)">
                        <mask id="mask-2" fill="white">
                            <use xlink:href="#path-1"></use>
                        </mask>
                        <g id="Clip-10"></g>
                        <path d="M26.4622454,10.0572319 C26.1427064,14.3808405 23.9044846,15.0783846 23.5820473,15.156294 C23.2907669,15.1701284 21.5264192,15.1832347 20.2873906,14.0575528 C19.4157231,13.2660805 18.9592389,12.0508392 18.9288066,10.4460509 C18.8469293,6.11661732 21.5445336,3.17935951 22.6908162,2.12867457 C23.8914422,3.20557202 26.7484537,6.19452674 26.4622454,10.0572319 M44.7491482,60.3721525 L23.7747851,56.2706222 L23.7747851,43.029662 L23.7660902,38.8924535 L23.7660902,38.7970691 L23.7233401,16.8870481 C23.7356579,16.8863199 23.7602935,16.8848637 23.764641,16.8848637 C23.7856538,16.8826793 23.8066665,16.8804949 23.8276793,16.8768543 C23.9870865,16.8513699 27.7404012,16.1902321 28.1852922,10.1868382 C28.6142424,4.38877578 23.4233647,0.464179935 23.2016438,0.300351723 C22.8994947,0.0753609777 22.4857606,0.0739047269 22.1814378,0.29598297 C21.9734839,0.447433051 17.0811324,4.08660374 17.2014123,10.4788165 C17.2412641,12.5823708 17.889037,14.2199248 19.1287901,15.3456066 C20.0439323,16.1771258 21.1126851,16.561576 21.9959458,16.741423 L22.0307256,34.7435951 L22.0386959,38.8502223 L22.0473908,43.0311183 L22.0473908,56.2684378 L0.701319171,60.3714244 C0.2332417,60.4617119 -0.073979427,60.9160622 0.0151436829,61.3864312 C0.0948472771,61.8021908 0.456411763,62.0919847 0.862900094,62.0919847 C0.916518875,62.0919847 0.971586813,62.0868878 1.02665475,62.0759659 L20.6489551,58.3042764 L9.82593155,70.99623 C9.51508753,71.3602927 9.55711306,71.907843 9.91940213,72.2202088 C10.2816912,72.5318465 10.8265739,72.4903433 11.137418,72.1255525 L22.0473908,59.3323894 L22.0473908,74.1286255 C22.0473908,74.607732 22.433591,74.997279 22.911088,74.997279 C23.3878604,74.997279 23.7747851,74.607732 23.7747851,74.1286255 L23.7747851,59.3833582 L34.5978086,72.4401027 C34.9035806,72.8092623 35.4477388,72.8580467 35.8143753,72.5515059 C36.0194309,72.3796683 36.1252193,72.1328338 36.1252193,71.8838149 C36.1252193,71.6886773 36.0600073,71.4913553 35.9252358,71.3289833 L25.1275725,58.3035483 L44.4194652,62.0752378 C44.8846443,62.1647972 45.340404,61.8604408 45.4317008,61.3893437 C45.5229976,60.9189747 45.2172257,60.4638963 44.7491482,60.3721525" id="Fill-9" fill="#FFFFFF" mask="url(#mask-2)"></path>
                    </g>
                </g>
            </g>
        </g>
    </g>
</svg>