<?xml version="1.0" encoding="UTF-8" standalone="no"?>
<svg width="70px" height="82px" viewBox="0 0 70 82" version="1.1" xmlns="http://www.w3.org/2000/svg" xmlns:xlink="http://www.w3.org/1999/xlink">
    <!-- Generator: Sketch 3.8.3 (29802) - http://www.bohemiancoding.com/sketch -->
    <title>Page 1</title>
    <desc>Created with Sketch.</desc>
    <defs></defs>
    <g id="Homepage" stroke="none" stroke-width="1" fill="none" fill-rule="evenodd">
        <g id="Homepage_Mobile" transform="translate(-191.000000, -3084.000000)">
            <g id="Group-9" transform="translate(163.000000, 3073.000000)">
                <g id="Page-1" transform="translate(28.091337, 11.218524)">
                    <path d="M37.1051444,38.1639479 L37.1051444,48.0930433 L38.5827487,47.2916199 C39.0308055,47.0511228 39.5891208,47.2137914 39.8321109,47.6604289 C40.0751009,48.1063653 39.909362,48.665188 39.4620075,48.9070874 L37.1051444,50.1859992 L37.1051444,53.4134285 L40.2745494,51.6934885 C40.7190948,51.4529913 41.279517,51.6163611 41.5232093,52.0622975 C41.7661994,52.5082338 41.6004605,53.0663554 41.1538083,53.3096571 L37.1051444,55.5063845 L37.1051444,58.7856994 L42.2746526,55.979666 C42.7199003,55.73987 43.2803224,55.9025386 43.5240148,56.3491761 C43.7663026,56.7944113 43.601266,57.3525329 43.1539114,57.5958347 L37.1051444,60.8786554 L37.1051444,65.751702 C38.053227,65.4579169 39.4915034,64.9159219 40.9115205,64.0128307 C44.0282543,62.0285542 45.6090943,59.2884295 45.6090943,55.8674807 C45.6090943,49.3747597 39.951499,41.6423917 37.1051444,38.1639479" id="Fill-1" fill="#FF003D"></path>
                    <path d="M26.7581219,55.8675509 C26.7581219,49.3748298 32.4171216,41.6424618 35.262774,38.164018 L35.262774,48.015986 L33.927031,47.29169 C33.4796764,47.0504918 32.9213611,47.2138615 32.6783711,47.660499 C32.435381,48.1071365 32.6011199,48.6652581 33.0477721,48.9071576 L35.262774,50.108942 L35.262774,53.3300608 L32.1397197,51.7790998 C31.6853423,51.5519247 31.131943,51.7370304 30.9051054,52.1927829 C30.6789702,52.6471332 30.864373,53.1989443 31.3194526,53.4254183 L35.262774,55.3830508 L35.262774,58.7086422 L31.1038516,56.4516153 C30.6579017,56.210417 30.0988841,56.3744879 29.8551917,56.8204243 C29.6122017,57.2663606 29.7779405,57.8244822 30.2252951,58.067784 L35.262774,60.8015982 L35.262774,65.7517721 C34.3153937,65.457987 32.876415,64.915992 31.4563979,64.0129008 C28.3389618,62.0286243 26.7581219,59.2884997 26.7581219,55.8675509 M40.9112396,64.0129008 C39.4919248,64.915992 38.0529461,65.457987 37.1048634,65.7517721 L37.1048634,60.8787255 L43.1543328,57.5959048 C43.600985,57.352603 43.7667239,56.7944814 43.5237339,56.3492462 C43.2800415,55.9026087 42.7203216,55.7399401 42.275074,55.9797361 L37.1048634,58.7857695 L37.1048634,55.5064546 L41.1535273,53.3097273 C41.6008819,53.0664255 41.7659185,52.5083039 41.5229284,52.0623676 C41.2799384,51.6164312 40.7195162,51.4530615 40.2742685,51.6935586 L37.1048634,53.4134986 L37.1048634,50.1860693 L39.4624289,48.9071576 C39.9097834,48.6652581 40.07482,48.1064354 39.8318299,47.660499 C39.5895422,47.2138615 39.0312269,47.0511929 38.58317,47.29169 L37.1048634,48.0931134 L37.1048634,38.164018 C39.9512181,41.6424618 45.6095156,49.3748298 45.6095156,55.8675509 C45.6095156,59.2884997 44.0286756,62.0286243 40.9112396,64.0129008 M36.8084998,35.0158196 C36.7726834,34.9828652 36.7354624,34.9541177 36.6968368,34.9274737 C36.6589135,34.9015309 36.6195856,34.8783927 36.5774486,34.8580591 C36.5577847,34.848944 36.5423344,34.8342197 36.5212659,34.8258058 C36.5001974,34.8173919 36.4770221,34.8180931 36.4552513,34.8110815 C36.4089006,34.7963572 36.3618476,34.7858398 36.3140923,34.7788283 C36.2726576,34.773219 36.2305206,34.7697132 36.1883836,34.7697132 C36.1406283,34.7697132 36.0935753,34.773219 36.0465223,34.7802306 C36.0029808,34.7872422 35.9601415,34.7970584 35.9173022,34.8096792 C35.8941268,34.8166908 35.8695469,34.8166908 35.8463716,34.8258058 C35.8253031,34.8342197 35.8091505,34.8496452 35.788082,34.8594614 C35.7473496,34.8790938 35.7094263,34.902232 35.6722053,34.9267726 C35.6328774,34.9534166 35.5949541,34.9828652 35.5598399,35.0158196 C35.5443897,35.0305439 35.525428,35.0389578 35.5106801,35.0543833 C35.0780735,35.5185497 24.9160324,46.5127037 24.9160324,55.8675509 C24.9160324,64.111764 32.7717748,66.9647751 35.262774,67.6617259 L35.262774,74.1228948 L35.262774,80.1886108 C35.262774,80.6955479 35.6757167,81.1078287 36.1841699,81.1078287 C36.6926231,81.1078287 37.1048634,80.6955479 37.1048634,80.1886108 L37.1048634,74.1228948 L37.1048634,67.6617259 C39.5958627,66.9647751 47.451605,64.111764 47.451605,55.8675509 C47.451605,46.5127037 37.2902663,35.5185497 36.8576597,35.0543833 C36.8429117,35.0389578 36.8239501,35.0298428 36.8084998,35.0158196" id="Fill-3" fill="#FFFFFF"></path>
                    <path d="M35.2629847,60.801528 L30.2248035,58.0677139 C29.7774489,57.8244121 29.6124123,57.2662905 29.8554024,56.8203542 C30.0983925,56.3744178 30.6574101,56.2103469 31.1040623,56.4515452 L35.2629847,58.7085721 L35.2629847,55.3829807 L31.3196633,53.4253482 C30.8638814,53.1988742 30.6791809,52.647063 30.9053161,52.1927128 C31.1314514,51.7369602 31.6848507,51.5518546 32.1399304,51.7790297 L35.2629847,53.3299907 L35.2629847,50.1088719 L33.0479828,48.9070874 C32.6013306,48.665188 32.4355917,48.1070664 32.6778795,47.6604289 C32.9215718,47.2137914 33.4798871,47.0504216 33.9272417,47.2916199 L35.2629847,48.0159159 L35.2629847,38.1639479 C32.41663,41.6423917 26.7583325,49.3747597 26.7583325,55.8674807 C26.7583325,59.2884295 28.3391725,62.0285542 31.4566086,64.0128307 C32.8766257,64.9159219 34.3149021,65.4579169 35.2629847,65.751702 L35.2629847,60.801528 Z" id="Fill-5" fill="#FF003D"></path>
                    <path d="M12.1884798,12.1403366 L12.1884798,22.3204465 L13.509475,21.6031621 C13.9554249,21.3626649 14.5151448,21.5260347 14.7581349,21.971971 C15.0011249,22.4179074 14.8360883,22.976029 14.3887338,23.2193307 L12.1884798,24.4134024 L12.1884798,27.6401305 L15.2005734,26.0050306 C15.6458211,25.7659358 16.2062433,25.9286044 16.4492333,26.3745408 C16.6922234,26.8204771 16.5271868,27.3778975 16.0798323,27.6211993 L12.1884798,29.7337877 L12.1884798,33.0124015 L17.2013789,30.2926104 C17.6487334,30.0528145 18.2063465,30.2147819 18.4500388,30.6614194 C18.6930289,31.1073558 18.52729,31.6661785 18.0806377,31.908078 L12.1884798,35.1053574 L12.1884798,39.7280907 C13.1365625,39.4343056 14.5748389,38.8923106 15.994856,37.9892194 C19.1122921,36.0049429 20.693132,33.2648183 20.693132,29.8438695 C20.693132,23.3511484 15.0348345,15.6187804 12.1884798,12.1403366" id="Fill-7" fill="#FF003D"></path>
                    <path d="M1.8420894,29.8438695 C1.8420894,23.3511484 7.5003869,15.6187804 10.3460393,12.1403366 L10.3460393,22.4137004 L8.85228247,21.6031621 C8.40563022,21.3619638 7.8473149,21.5260347 7.60362256,21.971971 C7.3606325,22.4179074 7.52637138,22.976029 7.97302364,23.2193307 L10.3460393,24.5073576 L10.3460393,27.7200625 L7.06497118,26.091273 C6.61059381,25.8633967 6.05649219,26.0506059 5.83105921,26.5049561 C5.60422167,26.9600075 5.78962449,27.5118187 6.24540643,27.7375915 L10.3460393,29.7737537 L10.3460393,33.1056555 L6.02980542,30.7637885 C5.58315317,30.5232913 5.02413557,30.6859599 4.7811455,31.1325975 C4.53815544,31.5785338 4.70319205,32.1366554 5.15054658,32.379256 L10.3460393,35.1993126 L10.3460393,39.7280907 C9.39865897,39.4343056 7.95968025,38.8923106 6.53966318,37.9892194 C3.42292938,36.0049429 1.8420894,33.2648183 1.8420894,29.8438695 M15.9945048,37.9892194 C14.57519,38.8923106 13.1362113,39.4343056 12.1881287,39.7280907 L12.1881287,35.1053574 L18.0802866,31.908078 C18.5276411,31.6661785 18.6926777,31.1073558 18.4496877,30.6614194 C18.2066976,30.2147819 17.6490846,30.0528145 17.2010277,30.2926104 L12.1881287,33.0124015 L12.1881287,29.7337877 L16.0794811,27.6211993 C16.5268357,27.3778975 16.6925745,26.8204771 16.4495845,26.3745408 C16.2058921,25.9286044 15.64547,25.7659358 15.2002223,26.0050306 L12.1881287,27.6401305 L12.1881287,24.4134024 L14.3883827,23.2193307 C14.8357372,22.976029 15.0007738,22.4179074 14.758486,21.971971 C14.515496,21.5260347 13.9550738,21.3626649 13.5091238,21.6031621 L12.1881287,22.3204465 L12.1881287,12.1403366 C15.0344834,15.6187804 20.6934832,23.3511484 20.6934832,29.8438695 C20.6934832,33.2648183 19.1126432,36.0049429 15.9945048,37.9892194 M11.8910628,8.99143704 C11.8566509,8.95918378 11.8194299,8.93043631 11.7808043,8.90449347 C11.7421787,8.87855064 11.7021486,8.85471127 11.6593093,8.83367654 C11.6403476,8.82456149 11.6248974,8.80983717 11.6045312,8.80212444 C11.584165,8.7944117 11.5616919,8.7944117 11.5406234,8.78810128 C11.4928681,8.77267581 11.4444106,8.76145729 11.3952507,8.75514687 C11.3552206,8.74883645 11.3144881,8.74603182 11.2737557,8.74603182 C11.2245959,8.74533066 11.1761383,8.7495376 11.128383,8.75654918 C11.0855437,8.76356076 11.0434067,8.77337697 11.0012697,8.78599781 C10.9773921,8.79300939 10.9528122,8.79300939 10.9296368,8.80212444 C10.9085683,8.81053833 10.8924158,8.8259638 10.8713473,8.83578001 C10.8306149,8.85541243 10.7926916,8.87855064 10.7554705,8.90309116 C10.7161427,8.92973515 10.6789216,8.95918378 10.6431052,8.9921382 C10.627655,9.00686251 10.6086933,9.0152764 10.5939453,9.03070187 C10.1613388,9.49486833 0,20.4890223 0,29.8438695 C0,38.0880826 7.85574231,40.9410937 10.3460393,41.6380445 L10.3460393,48.0992134 L10.3460393,72.9258082 C10.3460393,73.4334464 10.758982,73.8457272 11.2674351,73.8457272 C11.7758883,73.8457272 12.1881287,73.4334464 12.1881287,72.9258082 L12.1881287,48.0992134 L12.1881287,41.6380445 C14.679128,40.9410937 22.5355726,38.0880826 22.5355726,29.8438695 C22.5355726,20.4890223 12.3735315,9.49486833 11.9409249,9.03070187 C11.926177,9.0152764 11.9072153,9.00616135 11.8910628,8.99143704" id="Fill-9" fill="#FFFFFF"></path>
                    <path d="M10.3463202,35.1991022 L5.1508275,32.3797468 C4.70347296,32.1364451 4.53773407,31.5783235 4.78072413,31.1323871 C5.02441648,30.6864508 5.58343408,30.523081 6.03008633,30.7635781 L10.3463202,33.1061463 L10.3463202,29.7735433 L6.24498506,27.7373811 C5.78990541,27.5116083 5.60450258,26.9597972 5.83063784,26.5054469 C6.0567731,26.0503955 6.61087472,25.8638875 7.06525209,26.0917638 L10.3463202,27.7205533 L10.3463202,24.5071472 L7.97330455,23.2191204 C7.52595001,22.9758186 7.36091341,22.4183982 7.60390347,21.9724619 C7.84689353,21.5258243 8.40520885,21.3624546 8.85256339,21.6029517 L10.3463202,22.4141913 L10.3463202,12.1401263 C7.49996553,15.61857 1.84237032,23.3516392 1.84237032,29.8436591 C1.84237032,33.2646079 3.42321029,36.0047325 6.53994409,37.9897102 C7.95996116,38.8928014 9.3982376,39.4340952 10.3463202,39.7278803 L10.3463202,35.1991022 Z" id="Fill-11" fill="#FF003D"></path>
                    <path d="M59.5733679,4.09553272 L59.5733679,14.2062279 L60.9526526,13.4580926 C61.3986026,13.2175954 61.9583224,13.3802641 62.2013125,13.8269016 C62.4443026,14.2728379 62.279266,14.8309595 61.8319114,15.0735601 L59.5733679,16.2991839 L59.5733679,19.5266132 L62.643751,17.8599611 C63.0889987,17.6201652 63.6494209,17.7828338 63.892411,18.2287701 C64.135401,18.6747065 63.9703644,19.2328281 63.5230099,19.4761298 L59.5733679,21.6195691 L59.5733679,24.8981829 L64.6438542,22.1461386 C65.0891019,21.9063427 65.6488218,22.0690113 65.8925141,22.5156488 C66.1355042,22.960884 65.9697653,23.5190056 65.5231131,23.7623073 L59.5733679,26.9911389 L59.5733679,31.6832868 C60.5214506,31.3895017 61.959727,30.8475067 63.3797441,29.9444155 C66.4971802,27.960139 68.0780201,25.2200143 68.0780201,21.7990655 C68.0780201,15.3063445 62.4197226,7.57397647 59.5733679,4.09553272" id="Fill-13" fill="#FF003D"></path>
                    <g id="Group-17" transform="translate(47.052989, 0.474684)" fill="#FFFFFF">
                        <path d="M10.6782896,3.6208489 L10.6782896,13.762395 L9.24282228,12.9834088 C8.79546775,12.7422105 8.23715243,12.9055802 7.99416237,13.3522177 C7.7511723,13.7981541 7.91620891,14.3562757 8.36356344,14.5988763 L10.6782896,15.855351 L10.6782896,19.0708606 L7.45551099,17.4715197 C6.99972905,17.2436434 6.447032,17.4294502 6.22089674,17.8852028 C5.99476148,18.339553 6.1801643,18.8913642 6.63524395,19.1178382 L10.6782896,21.1245517 L10.6782896,24.4543501 L6.42034523,22.143334 C5.97369298,21.903538 5.41467538,22.0662066 5.17098303,22.512143 C4.92799297,22.9580793 5.09373185,23.5162009 5.54108639,23.7595027 L10.6782896,26.547306 L10.6782896,31.2072006 C8.16130582,30.4233062 2.17433969,27.8689884 2.17433969,21.3243817 C2.17433969,14.8316607 7.8319349,7.09929265 10.6782896,3.6208489 M16.3267551,29.4697317 C14.906738,30.3728229 13.4684616,30.9148178 12.520379,31.208603 L12.520379,26.5164551 L18.4701241,23.2876235 C18.9167764,23.0443218 19.0825152,22.4862002 18.8395252,22.040965 C18.5958328,21.5943275 18.036113,21.4316589 17.5908653,21.6714548 L12.520379,24.4234991 L12.520379,21.1448853 L16.4700209,19.001446 C16.9173755,18.7581442 17.0824121,18.2000226 16.839422,17.7540863 C16.5964319,17.3081499 16.0360098,17.1454813 15.5907621,17.3852773 L12.520379,19.0519293 L12.520379,15.8245001 L14.7789225,14.5988763 C15.226277,14.3562757 15.3913136,13.7981541 15.1483235,13.3522177 C14.9053335,12.9055802 14.3456136,12.7429116 13.8996636,12.9834088 L12.520379,13.7315441 L12.520379,3.6208489 C15.3667337,7.09929265 21.0250312,14.8316607 21.0250312,21.3243817 C21.0250312,24.7453305 19.4441912,27.4854551 16.3267551,29.4697317 M12.2731752,0.511214138 C12.2584273,0.495788667 12.2387633,0.486673616 12.2233131,0.47265046 C12.1881989,0.439696045 12.1509779,0.410948576 12.1123523,0.38430458 C12.074429,0.358361742 12.0343989,0.335223535 11.9922619,0.31488996 C11.9725979,0.305774908 11.9571477,0.291050595 11.9367815,0.282636702 C11.9150107,0.274222808 11.8925376,0.274222808 11.8707668,0.267912388 C11.8244161,0.253188075 11.7780654,0.242670708 11.7317147,0.23565913 C11.6881731,0.22934871 11.6446316,0.226544079 11.60109,0.226544079 C11.5554416,0.225842921 11.5097932,0.230049868 11.464847,0.236360288 C11.4199009,0.243371866 11.3749547,0.253188075 11.3307109,0.26721123 C11.3075355,0.274222808 11.2843602,0.274222808 11.2618871,0.282636702 C11.2408186,0.291050595 11.2253684,0.306476066 11.2050022,0.315591117 C11.1635674,0.335924693 11.1249418,0.358361742 11.0877208,0.383603422 C11.0483929,0.410247418 11.0104696,0.439696045 10.9753555,0.47265046 C10.9599052,0.487374774 10.9402413,0.495788667 10.9261956,0.511214138 C10.4928868,0.975380589 0.332250285,11.9695346 0.332250285,21.3243817 C0.332250285,29.5685949 8.18729031,32.4216059 10.6782896,33.1185568 L10.6782896,39.5797257 L10.6782896,74.7378803 C10.6782896,75.2448174 11.0912322,75.6570982 11.5996854,75.6570982 C12.1074363,75.6570982 12.520379,75.2448174 12.520379,74.7378803 L12.520379,39.5797257 L12.520379,33.1185568 C15.0113783,32.4216059 22.8671206,29.5685949 22.8671206,21.3243817 C22.8671206,11.9695346 12.7057818,0.975380589 12.2731752,0.511214138" id="Fill-15"></path>
                    </g>
                    <path d="M57.7312785,31.6816741 L57.7312785,27.0217795 L52.5940753,24.2339762 C52.1467208,23.9906744 51.9809819,23.4325528 52.223972,22.9873176 C52.4676643,22.5406801 53.0266819,22.3780115 53.4733342,22.6178075 L57.7312785,24.9288235 L57.7312785,21.5990252 L53.6882329,19.5923116 C53.2331533,19.3665388 53.0477504,18.8140265 53.2738857,18.3596763 C53.500021,17.9046249 54.052718,17.7181169 54.5084999,17.9459932 L57.7312785,19.5460352 L57.7312785,16.3298245 L55.4165524,15.0733497 C54.9691979,14.8307492 54.8041613,14.2726276 55.0471513,13.8266912 C55.2901414,13.3800537 55.8484567,13.2166839 56.2958112,13.4578822 L57.7312785,14.2368685 L57.7312785,4.09532237 C54.8849239,7.57376612 49.2273286,15.3068353 49.2273286,21.7988552 C49.2273286,28.3434619 55.2142948,30.8977797 57.7312785,31.6816741" id="Fill-18" fill="#FF003D"></path>
                </g>
            </g>
        </g>
    </g>
</svg>