<?xml version="1.0" encoding="UTF-8"?>
<!-- Generator: Adobe Illustrator 19.0.0, SVG Export Plug-In . SVG Version: 6.00 Build 0)  -->
<svg version="1.1" id="Layer_1" xmlns="http://www.w3.org/2000/svg" xmlns:xlink="http://www.w3.org/1999/xlink" x="0px" y="0px" viewBox="0 0 306 66.7" style="enable-background:new 0 0 306 66.7;" xml:space="preserve">
<style type="text/css">
	.st0{fill:#FF003D;}
	.st1{fill:#23CCB7;}
	.st2{fill:#0DFF79;}
	.st3{fill:#0B81D8;}
	.st4{opacity:0.8679;enable-background:new    ;}
	.st5{clip-path:url(#XMLID_186_);}
	.st6{clip-path:url(#XMLID_187_);enable-background:new    ;}
	.st7{clip-path:url(#XMLID_188_);}
	.st8{clip-path:url(#XMLID_189_);}
	.st9{clip-path:url(#XMLID_190_);fill:#202C33;}
	.st10{clip-path:url(#XMLID_191_);}
	.st11{clip-path:url(#XMLID_192_);fill:#202C33;}
	.st12{clip-path:url(#XMLID_193_);}
	.st13{clip-path:url(#XMLID_194_);fill:#202C33;}
	.st14{clip-path:url(#XMLID_195_);}
	.st15{clip-path:url(#XMLID_196_);fill:#202C33;}
	.st16{clip-path:url(#XMLID_197_);}
	.st17{clip-path:url(#XMLID_198_);enable-background:new    ;}
	.st18{clip-path:url(#XMLID_199_);}
	.st19{clip-path:url(#XMLID_200_);}
	.st20{clip-path:url(#XMLID_201_);fill:#202C33;}
	.st21{clip-path:url(#XMLID_202_);}
	.st22{clip-path:url(#XMLID_203_);fill:#202C33;}
	.st23{clip-path:url(#XMLID_204_);}
	.st24{clip-path:url(#XMLID_205_);fill:#202C33;}
	.st25{clip-path:url(#XMLID_206_);}
	.st26{clip-path:url(#XMLID_207_);fill:#202C33;}
	.st27{clip-path:url(#XMLID_208_);}
	.st28{clip-path:url(#XMLID_209_);fill:#202C33;}
</style>
<polygon id="XMLID_230_" class="st0" points="288,56 258.6,47.3 259.5,44.6 288.9,53.3 "/>
<polygon id="XMLID_229_" class="st1" points="249.5,9.7 296.3,8.5 296.4,11.4 249.6,12.6 "/>
<polygon id="XMLID_56_" class="st2" points="290.7,56.4 294.6,12.6 297.5,12.9 293.6,56.7 "/>
<polygon id="XMLID_57_" class="st3" points="255.5,45.7 247.9,11.2 250.7,10.6 258.3,45.1 "/>
<path id="XMLID_560_" class="st2" d="M302.8,9.3c0.6,3.7-2,7.1-5.6,7.7c-3.7,0.6-7.1-2-7.7-5.6c-0.6-3.7,2-7.1,5.6-7.7  C298.8,3.1,302.2,5.6,302.8,9.3"/>
<path id="XMLID_559_" class="st0" d="M297.9,55c0.6,3.7-2,7.1-5.6,7.7c-3.7,0.6-7.1-2-7.7-5.6c-0.6-3.7,2-7.1,5.6-7.7  C293.9,48.8,297.3,51.3,297.9,55"/>
<path id="XMLID_558_" class="st1" d="M256.1,11.5c0,3.7-3,6.7-6.7,6.7c-3.7,0-6.7-3-6.7-6.7s3-6.7,6.7-6.7  C253.1,4.7,256.1,7.8,256.1,11.5"/>
<path id="XMLID_556_" class="st3" d="M263.7,44.3c0.6,3.7-2,7.1-5.6,7.7c-3.7,0.6-7.1-2-7.7-5.6c-0.6-3.7,2-7.1,5.6-7.7  C259.7,38.1,263.1,40.6,263.7,44.3"/>
<g id="XMLID_58_" class="st4">
	<g id="XMLID_59_">
		<defs>
			<rect id="XMLID_60_" x="5.8" y="19.1" width="210.1" height="23.7"/>
		</defs>
		<clipPath id="XMLID_186_">
			<use xlink:href="#XMLID_60_" style="overflow:visible;"/>
		</clipPath>
		<g id="XMLID_79_" class="st5">
			<defs>
				<rect id="XMLID_80_" x="5.8" y="19.1" width="210.1" height="23.7"/>
			</defs>
			<clipPath id="XMLID_187_">
				<use xlink:href="#XMLID_80_" style="overflow:visible;"/>
			</clipPath>
			<g id="XMLID_81_" class="st6">
				<g id="XMLID_82_">
					<defs>
						<rect id="XMLID_83_" x="5.8" y="19.1" width="210.1" height="23.7"/>
					</defs>
					<clipPath id="XMLID_188_">
						<use xlink:href="#XMLID_83_" style="overflow:visible;"/>
					</clipPath>
					<g id="XMLID_139_" class="st7">
						<defs>
							<polygon id="XMLID_140_" points="5.8,19.9 5.8,42 23.1,42 23.1,36.9 13.5,36.9 13.5,19.9        "/>
						</defs>
						<clipPath id="XMLID_189_">
							<use xlink:href="#XMLID_140_" style="overflow:visible;"/>
						</clipPath>
						<g id="XMLID_141_" class="st8">
							<defs>
								<rect id="XMLID_142_" x="5.8" y="19.1" width="210.1" height="23.7"/>
							</defs>
							<clipPath id="XMLID_190_">
								<use xlink:href="#XMLID_142_" style="overflow:visible;"/>
							</clipPath>
							<rect id="XMLID_143_" x="-0.1" y="13.9" class="st9" width="29.2" height="34"/>
						</g>
					</g>
					<g id="XMLID_132_" class="st7">
						<defs>
							<path id="XMLID_133_" d="M37,30.4l2,4.2h-3.9L37,30.4z M36.7,19.6L23.3,42h8.4l1.3-2.7h8.2l1.2,2.7h8.4L37.4,19.6H36.7z"/>
						</defs>
						<clipPath id="XMLID_191_">
							<use xlink:href="#XMLID_133_" style="overflow:visible;"/>
						</clipPath>
						<g id="XMLID_136_" class="st10">
							<defs>
								<rect id="XMLID_137_" x="5.8" y="19.1" width="210.1" height="23.7"/>
							</defs>
							<clipPath id="XMLID_192_">
								<use xlink:href="#XMLID_137_" style="overflow:visible;"/>
							</clipPath>
							<rect id="XMLID_138_" x="17.4" y="13.7" class="st11" width="39.3" height="34.3"/>
						</g>
					</g>
					<g id="XMLID_127_" class="st7">
						<defs>
							<path id="XMLID_128_" d="M62.1,42.8c-4,0-6.7-0.8-8.2-2.5c-1.4-1.7-2.1-4-2.1-7V19.9h7.7V32c0,1.3,0.1,2.3,0.4,3         c0.3,0.7,1,1,2.2,1c1.2,0,1.9-0.3,2.2-1c0.3-0.7,0.5-1.7,0.5-2.9V19.9h7.7v13.4c0,2.7-0.5,4.7-1.4,6.1         c-1,1.4-2.2,2.3-3.7,2.8C65.7,42.6,64,42.8,62.1,42.8"/>
						</defs>
						<clipPath id="XMLID_193_">
							<use xlink:href="#XMLID_128_" style="overflow:visible;"/>
						</clipPath>
						<g id="XMLID_129_" class="st12">
							<defs>
								<rect id="XMLID_130_" x="5.8" y="19.1" width="210.1" height="23.7"/>
							</defs>
							<clipPath id="XMLID_194_">
								<use xlink:href="#XMLID_130_" style="overflow:visible;"/>
							</clipPath>
							<rect id="XMLID_131_" x="45.9" y="13.9" class="st13" width="32.5" height="34.8"/>
						</g>
					</g>
					<g id="XMLID_122_" class="st7">
						<defs>
							<polygon id="XMLID_123_" points="74.6,19.6 75.4,19.6 89.8,28.5 89.8,19.9 97.5,19.9 97.5,42.6 96.9,42.6 82.2,33.6 82.2,42          74.6,42        "/>
						</defs>
						<clipPath id="XMLID_195_">
							<use xlink:href="#XMLID_123_" style="overflow:visible;"/>
						</clipPath>
						<g id="XMLID_124_" class="st14">
							<defs>
								<rect id="XMLID_125_" x="5.8" y="19.1" width="210.1" height="23.7"/>
							</defs>
							<clipPath id="XMLID_196_">
								<use xlink:href="#XMLID_125_" style="overflow:visible;"/>
							</clipPath>
							<rect id="XMLID_126_" x="68.6" y="13.7" class="st15" width="34.8" height="34.8"/>
						</g>
					</g>
					<g id="XMLID_110_" class="st7">
						<defs>
							<rect id="XMLID_111_" x="5.8" y="19.5" width="209.8" height="23.3"/>
						</defs>
						<clipPath id="XMLID_197_">
							<use xlink:href="#XMLID_111_" style="overflow:visible;"/>
						</clipPath>
						<g id="XMLID_112_" class="st16">
							<defs>
								<rect id="XMLID_113_" x="5.8" y="19.1" width="210.1" height="23.7"/>
							</defs>
							<clipPath id="XMLID_198_">
								<use xlink:href="#XMLID_113_" style="overflow:visible;"/>
							</clipPath>
							<g id="XMLID_114_" class="st17">
								<g id="XMLID_115_">
									<defs>
										<rect id="XMLID_116_" x="98.4" y="19.1" width="24.9" height="23.7"/>
									</defs>
									<clipPath id="XMLID_199_">
										<use xlink:href="#XMLID_116_" style="overflow:visible;"/>
									</clipPath>
									<g id="XMLID_117_" class="st18">
										<defs>
											<path id="XMLID_118_" d="M115.7,29.3c-0.3-0.9-0.8-1.5-1.5-2c-0.7-0.5-1.6-0.7-2.7-0.7c-1.3,0-2.4,0.5-3.2,1.3             c-0.9,0.9-1.3,2-1.3,3.3c0,1.2,0.4,2.3,1.3,3.3c0.9,0.9,2,1.4,3.2,1.4c1.1,0,2-0.2,2.7-0.7c0.7-0.5,1.2-1.1,1.6-2             l7.1,1.9c-0.7,2.4-2,4.3-4,5.7c-2,1.4-4.5,2.2-7.5,2.2c-3.4,0-6.3-1.1-8.6-3.4c-2.4-2.3-3.6-5-3.6-8.3             c0-3.2,1.2-6,3.5-8.2c2.4-2.3,5.2-3.4,8.6-3.4c2.9,0,5.3,0.7,7.2,2c1.9,1.3,3.3,3.1,4.1,5.3L115.7,29.3z"/>
										</defs>
										<clipPath id="XMLID_200_">
											<use xlink:href="#XMLID_118_" style="overflow:visible;"/>
										</clipPath>
										<g id="XMLID_119_" class="st19">
											<defs>
												<rect id="XMLID_120_" x="5.8" y="19.1" width="210.1" height="23.7"/>
											</defs>
											<clipPath id="XMLID_201_">
												<use xlink:href="#XMLID_120_" style="overflow:visible;"/>
											</clipPath>
											<rect id="XMLID_121_" x="93.2" y="13.6" class="st20" width="35.5" height="35.2"/>
										</g>
									</g>
								</g>
							</g>
						</g>
					</g>
					<g id="XMLID_105_" class="st7">
						<defs>
							<polygon id="XMLID_106_" points="124.4,19.9 132,19.9 132,27.4 137.8,27.4 137.8,19.9 145.5,19.9 145.5,42 137.8,42          137.8,34.5 132,34.5 132,42 124.4,42        "/>
						</defs>
						<clipPath id="XMLID_202_">
							<use xlink:href="#XMLID_106_" style="overflow:visible;"/>
						</clipPath>
						<g id="XMLID_107_" class="st21">
							<defs>
								<rect id="XMLID_108_" x="5.8" y="19.1" width="210.1" height="23.7"/>
							</defs>
							<clipPath id="XMLID_203_">
								<use xlink:href="#XMLID_108_" style="overflow:visible;"/>
							</clipPath>
							<rect id="XMLID_109_" x="118.4" y="13.9" class="st22" width="33" height="34"/>
						</g>
					</g>
					<g id="XMLID_98_" class="st7">
						<defs>
							<path id="XMLID_99_" d="M147.7,19.9h10.7c1.9,0,3.6,0.3,5.2,0.8c1.6,0.5,2.7,1.4,3.3,2.4c0.6,1.1,1,1.9,1.1,2.6         c0.1,0.6,0.2,1.3,0.2,2.1c0,0.8-0.1,1.6-0.3,2.4c-0.2,0.8-0.6,1.7-1.2,2.7c-0.6,1-1.8,1.8-3.5,2.4c-1.7,0.6-3.4,0.9-5.3,0.9         h-2.6V42h-7.7V19.9z M155.3,25.2v5.4h2.7c0.7,0,1.3-0.3,1.8-0.8c0.5-0.5,0.7-1.2,0.7-1.9c0-0.7-0.2-1.3-0.7-1.9         c-0.5-0.6-1.1-0.8-1.8-0.8H155.3z"/>
						</defs>
						<clipPath id="XMLID_204_">
							<use xlink:href="#XMLID_99_" style="overflow:visible;"/>
						</clipPath>
						<g id="XMLID_102_" class="st23">
							<defs>
								<rect id="XMLID_103_" x="5.8" y="19.1" width="210.1" height="23.7"/>
							</defs>
							<clipPath id="XMLID_205_">
								<use xlink:href="#XMLID_103_" style="overflow:visible;"/>
							</clipPath>
							<rect id="XMLID_104_" x="141.7" y="13.9" class="st24" width="32.4" height="34"/>
						</g>
					</g>
					<g id="XMLID_91_" class="st7">
						<defs>
							<path id="XMLID_92_" d="M175,39.3l-1.3,2.7h-8.4l13.4-22.4h0.7L192.8,42h-8.4l-1.2-2.7H175z M181.1,34.6l-2-4.2l-1.9,4.2         H181.1z"/>
						</defs>
						<clipPath id="XMLID_206_">
							<use xlink:href="#XMLID_92_" style="overflow:visible;"/>
						</clipPath>
						<g id="XMLID_95_" class="st25">
							<defs>
								<rect id="XMLID_96_" x="5.8" y="19.1" width="210.1" height="23.7"/>
							</defs>
							<clipPath id="XMLID_207_">
								<use xlink:href="#XMLID_96_" style="overflow:visible;"/>
							</clipPath>
							<rect id="XMLID_97_" x="159.5" y="13.7" class="st26" width="39.3" height="34.3"/>
						</g>
					</g>
					<g id="XMLID_84_" class="st7">
						<defs>
							<path id="XMLID_85_" d="M193.8,19.9h11c2,0,3.8,0.4,5.5,1.2c1.7,0.8,3,2.1,3.9,3.9c0.9,1.8,1.4,3.7,1.4,5.9         c0,1.3-0.2,2.6-0.5,3.8c-0.3,1.2-0.9,2.5-1.7,3.8c-0.8,1.3-2.1,2.2-3.7,2.7c-1.6,0.5-3.4,0.8-5.3,0.8h-10.6V19.9z          M201.5,36.4c1.5,0,2.6-0.1,3.4-0.2c0.8-0.2,1.5-0.7,1.9-1.7c0.4-1,0.6-2.1,0.6-3.4c0-0.9-0.1-1.7-0.2-2.4         c-0.2-0.7-0.4-1.4-0.8-1.9c-0.4-0.5-0.9-0.9-1.6-1.1c-0.7-0.2-1.5-0.3-2.5-0.3h-0.7V36.4z"/>
						</defs>
						<clipPath id="XMLID_208_">
							<use xlink:href="#XMLID_85_" style="overflow:visible;"/>
						</clipPath>
						<g id="XMLID_88_" class="st27">
							<defs>
								<rect id="XMLID_89_" x="5.8" y="19.1" width="210.1" height="23.7"/>
							</defs>
							<clipPath id="XMLID_209_">
								<use xlink:href="#XMLID_89_" style="overflow:visible;"/>
							</clipPath>
							<rect id="XMLID_90_" x="187.9" y="13.9" class="st28" width="33.6" height="34"/>
						</g>
					</g>
				</g>
			</g>
		</g>
	</g>
</g>
</svg>